
<svg width="856px" height="702px" viewBox="72 149 856 702" version="1.1" xmlns="http://www.w3.org/2000/svg" xmlns:xlink="http://www.w3.org/1999/xlink">
    <g id="css-modules-logo" stroke="none" stroke-width="1" fill="none" fill-rule="evenodd" transform="translate(75.000000, 151.000000)">
        <g id="layer1" transform="translate(0.712900, 0.640000)">
            <g id="flowRoot3336" transform="translate(37.288500, 321.696000)" fill-rule="nonzero" fill="#4A4A4A">
                <path d="M56.696155,0.654955 C71.895708,0.654955 83.6898967,4.65907833 92.078721,12.667325 C100.468289,20.6755717 105.126089,29.7734853 106.05212,39.961066 L90.1991384,39.961066 C88.4013738,32.2252981 84.8058446,26.096572 79.4125508,21.5748878 C74.0738023,17.0532037 66.5558438,14.7923616 56.8586753,14.7923616 C45.03709,14.7923616 35.4761608,18.959873 28.1758878,27.2948958 C20.930408,35.5754972 17.3076681,48.2957169 17.3076681,65.4555548 C17.3076681,79.5108955 20.5762972,90.9238866 27.1135554,99.6945283 C33.705359,108.410873 43.5111223,112.769045 56.5308454,112.769045 C68.5159428,112.769045 77.6411291,108.165667 83.9064044,98.9589101 C87.2295789,94.1104498 89.7082924,87.7367036 91.3425449,79.8376716 L107.195526,79.8376716 C105.779083,92.4760733 101.094011,103.072124 93.1403095,111.625824 C83.606777,121.922124 70.750194,127.070273 54.5705605,127.070273 C40.6243105,127.070273 28.9119399,122.848279 19.4334485,114.404289 C6.95868288,103.23638 0.72130005,85.9944761 0.72130005,62.6785775 C0.72130005,44.9736582 5.40637228,30.455302 14.7765167,19.123509 C24.9093041,6.81163553 38.8828268,0.6556988 56.6970847,0.6556988 L56.696155,0.654955 Z" id="path4379"></path>
                <path d="M137.67738,85.225015 C138.058714,92.0347519 139.665818,97.5642231 142.498692,101.813429 C147.891985,109.76713 157.398369,113.743981 171.017843,113.743981 C177.119358,113.743981 182.67604,112.872371 187.687889,111.129152 C197.384933,107.751556 202.233456,101.704524 202.233456,92.9880556 C202.233456,86.4507974 200.190547,81.7929978 196.10473,79.0146569 C191.964491,76.2907373 185.481654,73.9209905 176.656219,71.9054165 L160.394706,68.2282553 C149.77163,65.8312358 142.253671,63.1890722 137.84083,60.3017646 C130.213905,55.2897923 126.400442,47.7991064 126.400442,37.8297071 C126.400442,27.0431195 130.132149,18.1906598 137.595562,11.2723281 C145.058975,4.35362447 155.627753,0.89427265 169.301896,0.89427265 C181.885753,0.89427265 192.563622,3.94503033 201.335503,10.0465457 C210.160938,16.0935157 214.573655,25.7908082 214.573655,39.1384232 L199.292656,39.1384232 C198.475493,32.7100077 196.732212,27.7797914 194.062813,24.3477743 C189.105386,18.0828708 180.688669,14.9504191 168.812662,14.9504191 C159.224584,14.9504191 152.333277,16.9661171 148.138741,20.9975131 C143.943957,25.0289091 141.846565,29.7139813 141.846565,35.0527298 C141.846565,40.9363118 144.298068,45.2400625 149.201073,47.9639821 C152.415281,49.7072014 159.687786,51.8862874 171.018587,54.5012403 L187.852083,58.3418516 C195.969172,60.1940376 202.233827,62.7272344 206.646049,65.9414422 C214.27285,71.5526694 218.086251,79.6972794 218.086251,90.3752722 C218.086251,103.668218 213.237729,113.174602 203.540684,118.894424 C193.898185,124.614618 182.676102,127.474715 169.874437,127.474715 C154.94761,127.474715 143.261892,123.661314 134.817283,116.034513 C126.373294,108.462133 122.232993,98.193354 122.396381,85.2281762 L137.67738,85.2281762 L137.67738,85.225015 Z" id="path4381"></path>
                <path d="M249.13581,85.225015 C249.517156,92.0347519 251.12426,97.5642231 253.957122,101.813429 C259.350415,109.76713 268.856799,113.743981 282.476273,113.743981 C288.577788,113.743981 294.13447,112.872371 299.146319,111.129152 C308.843363,107.751556 313.691886,101.704524 313.691886,92.9880556 C313.691886,86.4507974 311.648977,81.7929978 307.56316,79.0146569 C303.422921,76.2907373 296.940084,73.9209905 288.114649,71.9054165 L271.853136,68.2282553 C261.23006,65.8312358 253.712101,63.1890722 249.29926,60.3017646 C241.672459,55.2897923 237.859058,47.7991064 237.859058,37.8297071 C237.859058,27.0431195 241.590765,18.1906598 249.054178,11.2723281 C256.517591,4.35362447 267.086369,0.89427265 280.760512,0.89427265 C293.344369,0.89427265 304.022238,3.94503033 312.794119,10.0465457 C321.61943,16.0935157 326.032085,25.7908082 326.032085,39.1384232 L310.751086,39.1384232 C309.933923,32.7100077 308.190642,27.7797914 305.521243,24.3477743 C300.563816,18.0828708 292.147099,14.9504191 280.271092,14.9504191 C270.683014,14.9504191 263.791707,16.9661171 259.597171,20.9975131 C255.402387,25.0289091 253.304995,29.7139813 253.304995,35.0527298 C253.304995,40.9363118 255.756498,45.2400625 260.659503,47.9639821 C263.873711,49.7072014 271.146216,51.8862874 282.477017,54.5012403 L299.310513,58.3418516 C307.427726,60.1940376 313.692381,62.7272344 318.104479,65.9414422 C325.73128,71.5526694 329.544681,79.6972794 329.544681,90.3752722 C329.544681,103.668218 324.696159,113.174602 314.999114,118.894424 C305.356615,124.614618 294.134532,127.474715 281.332867,127.474715 C266.40604,127.474715 254.720322,123.661314 246.275713,116.034513 C237.831724,108.462133 233.691423,98.193354 233.854811,85.2281762 L249.13581,85.2281762 L249.13581,85.225015 Z" id="path4383"></path>
                <path d="M5.6956485,213.10283 L28.9840265,213.10283 L63.468454,314.59434 L97.7074275,213.10283 L120.752211,213.10283 L120.752211,333.144712 L105.307762,333.144712 L105.307762,262.295902 C105.307762,259.844462 105.362245,255.785917 105.471212,250.120268 C105.580179,244.45462 105.634662,238.380377 105.634662,231.89754 L71.3956884,333.143596 L55.297625,333.143596 L20.8131975,231.89754 L20.8131975,235.574702 C20.8131975,238.516431 20.8676747,243.010842 20.976629,249.057936 C21.1400667,255.050485 21.2217855,259.46314 21.2217855,262.295902 L21.2217855,333.144712 L5.69570428,333.144712 L5.69570428,213.10283 L5.6956485,213.10283 Z" id="path4385"></path>
                <path d="M197.4789,209.848705 C218.671002,209.848705 234.360223,216.658194 244.546564,230.277172 C252.500265,240.900248 256.477116,254.492573 256.477116,271.054148 C256.477116,288.977248 251.928221,303.876802 242.830431,315.752809 C232.152811,329.699058 216.926605,336.672184 197.151814,336.672184 C178.6845,336.672184 164.166143,330.570668 153.596745,318.367637 C144.17218,306.600473 139.459897,291.728192 139.459897,273.750794 C139.459897,257.51612 143.491231,243.624415 151.553899,232.07568 C161.90462,217.257945 177.212643,209.849077 197.47797,209.849077 L197.4789,209.848705 Z M199.113233,322.127175 C213.4413,322.127175 223.791897,317.006297 230.165024,306.764543 C236.593439,296.468244 239.807647,284.646783 239.807647,271.300159 C239.807647,257.190273 236.103151,245.831828 228.694159,237.224822 C221.339713,228.61732 211.261223,224.31357 198.458689,224.31357 C186.037229,224.31357 175.904194,228.590048 168.059583,237.143004 C160.214849,245.641539 156.292481,258.198742 156.292481,274.814614 C156.292481,288.10756 159.642866,299.329643 166.343637,308.480862 C173.098828,317.578652 184.021531,322.127546 199.111746,322.127546 L199.113233,322.127175 Z" id="path4387"></path>
                <path d="M321.860855,319.261685 C327.363116,319.261685 331.884738,318.689672 335.425722,317.545645 C341.74517,315.420981 346.920531,311.335163 350.951803,305.288193 C354.16601,300.439733 356.481336,294.229003 357.897779,286.656003 C358.714943,282.134319 359.123524,277.939535 359.123524,274.071651 C359.123524,259.19937 356.154523,247.650016 350.216519,239.423588 C344.328103,231.204598 334.819859,227.095103 321.691789,227.095103 L292.845366,227.095103 L292.845366,319.270518 L321.855425,319.270518 L321.860855,319.261685 Z M276.50765,213.112128 L325.127996,213.112128 C341.634158,213.112128 354.436196,218.968437 363.534109,230.681055 C371.651199,241.24971 375.709744,254.787489 375.709744,271.294395 C375.709744,284.041887 373.312724,295.563969 368.518685,305.86064 C360.074696,324.056468 345.55634,333.154381 324.963617,333.154381 L276.505047,333.154381 L276.505047,213.112499 L276.50765,213.112128 Z" id="path4389"></path>
                <path d="M414.352385,213.10283 L414.352385,287.300599 C414.352385,296.016943 415.9867,303.262175 419.255329,309.036295 C424.103789,317.752639 432.275672,322.110811 443.770977,322.110811 C457.553591,322.110811 466.923611,317.398528 471.881038,307.973962 C474.550412,302.853023 475.8851,295.961716 475.8851,287.300041 L475.8851,213.102272 L492.391881,213.102272 L492.391881,280.518445 C492.391881,295.281635 490.403456,306.640081 486.426605,314.593782 C479.12658,329.084246 465.343966,336.329478 445.078763,336.329478 C424.812692,336.329478 411.057351,329.084246 403.812739,314.593782 C399.835888,306.640081 397.847463,295.281635 397.847463,280.518445 L397.847463,213.102272 L414.354245,213.102272 L414.352385,213.10283 Z" id="path4391"></path>
                <polygon id="path4393" points="517.331495 213.10283 533.593008 213.10283 533.593008 318.843297 594.389361 318.843297 594.389361 333.143596 517.331681 333.143596 517.331681 213.101714"></polygon>
                <polygon id="path4395" points="612.03583 213.10283 699.553198 213.10283 699.553198 227.811847 627.888067 227.811847 627.888067 264.258047 694.160647 264.258047 694.160647 278.149814 627.888067 278.149814 627.888067 318.844971 700.778608 318.844971 700.778608 333.14527 612.03397 333.14527 612.03397 213.103388"></polygon>
                <path d="M732.884735,294.418765 C733.266081,301.228502 734.873185,306.757973 737.706047,311.007179 C743.09934,318.96088 752.605724,322.937731 766.225198,322.937731 C772.326713,322.937731 777.883395,322.066121 782.895244,320.322902 C792.592288,316.945306 797.440811,310.898274 797.440811,302.181806 C797.440811,295.644547 795.397902,290.986748 791.312084,288.208407 C787.171846,285.484487 780.689009,283.114741 771.863574,281.099167 L755.602061,277.422005 C744.978985,275.024986 737.461026,272.382822 733.048185,269.495515 C725.421384,264.483542 721.607983,256.992856 721.607983,247.023457 C721.607983,236.236869 725.33969,227.38441 732.803103,220.466078 C740.266516,213.547374 750.835294,210.088023 764.509437,210.088023 C777.093294,210.088023 787.771163,213.13878 796.543044,219.240296 C805.368355,225.287266 809.78101,234.984558 809.78101,248.332173 L794.500011,248.332173 C793.682848,241.903758 791.939567,236.973541 789.270168,233.541524 C784.312741,227.276621 775.896024,224.144169 764.020017,224.144169 C754.431939,224.144169 747.540632,226.159867 743.346096,230.191263 C739.151312,234.222659 737.05392,238.907731 737.05392,244.24648 C737.05392,250.130062 739.505423,254.433813 744.408428,257.157732 C747.622636,258.900951 754.895141,261.080037 766.225942,263.69499 L783.059438,267.535602 C791.176651,269.387788 797.441306,271.920984 801.853404,275.135192 C809.480205,280.746419 813.293606,288.891029 813.293606,299.569022 C813.293606,312.861968 808.445084,322.368352 798.748039,328.088174 C789.10554,333.808368 777.883457,336.668465 765.081792,336.668465 C750.154965,336.668465 738.469247,332.855064 730.024638,325.228263 C721.580649,317.655883 717.440348,307.387104 717.603736,294.421926 L732.884735,294.421926 L732.884735,294.418765 Z" id="path4397"></path>
            </g>
            <rect id="rect4156" stroke="#4A4A4A" stroke-width="5" x="0.492" y="0.85" width="695.02" height="695.02"></rect>
        </g>
    </g>
</svg>
