
<svg width="129px" height="129px" viewBox="0 14 129 105" version="1.1" xmlns="http://www.w3.org/2000/svg" xmlns:xlink="http://www.w3.org/1999/xlink">
    <!-- Generator: Sketch 42 (36781) - http://www.bohemiancoding.com/sketch -->
    <desc>Created with Sketch.</desc>
    <defs></defs>
    <g id="css-modules-logo" stroke="none" stroke-width="1" fill="none" fill-rule="evenodd" transform="translate(0.000000, 14.000000)">
        <g id="layer1" fill="#363636">
            <g transform="translate(0.106149, 0.095295)">
                <g id="Group">
                    <path d="M0.0732577108,0.126563118 L103.563256,0.126563118 L103.563256,103.616561 L0.0732577108,103.616561 L0.0732577108,0.126563118 Z M1.07385095,1.12470527 L1.07385095,102.614703 L102.563849,102.614703 L102.563849,1.12470527 L1.07385095,1.12470527 Z" id="Combined-Shape"></path>
                </g>
                <g id="flowRoot3336" transform="translate(5.552175, 47.899822)" fill-rule="nonzero">
                    <path d="M8.44193197,0.0975213496 C10.7051118,0.0975213496 12.4612404,0.693726449 13.7103177,1.88613665 C14.9595058,3.07854686 15.6530419,4.43320605 15.7909259,5.95011426 L13.430452,5.95011426 C13.1627689,4.79827555 12.6274025,3.8857218 11.824353,3.21245303 C11.0294252,2.53918428 9.91001781,2.2025499 8.46613088,2.2025499 C6.705923,2.2025499 5.28232181,2.82308312 4.19532732,4.06414956 C3.11649142,5.29711278 2.57707347,7.19112533 2.57707347,9.74618721 C2.57707347,11.8389963 3.0637651,13.5383654 4.03714838,14.8442946 C5.01865334,16.142139 6.47870979,16.7910612 8.41731774,16.7910612 C10.2018722,16.7910612 11.5605922,16.1056284 12.4934779,14.7347626 C12.9882912,14.0128376 13.3573661,13.0638009 13.6007027,11.8876526 L15.9611765,11.8876526 C15.7502713,13.7694826 15.0526744,15.3472111 13.8683859,16.6208381 C12.448864,18.1539344 10.5345473,18.9204824 8.12543565,18.9204824 C6.0488699,18.9204824 4.30492385,18.2918368 2.89359746,17.0345454 C1.03613248,15.3716684 0.107399981,12.8043871 0.107399981,9.33270144 C0.107399981,6.69647815 0.804996864,4.53472705 2.20019063,2.84744816 C3.70894024,1.01423745 5.78956683,0.0976320998 8.4420704,0.0976320998 L8.44193197,0.0975213496 Z" id="path4379"></path>
                    <path d="M20.4998571,12.6898161 C20.5566369,13.7037708 20.7959311,14.5270968 21.2177398,15.1597942 C22.0207892,16.3440827 23.4362687,16.936227 25.4641782,16.936227 C26.3726803,16.936227 27.200058,16.8064462 27.9463112,16.5468847 C29.3901796,16.0439682 30.1121139,15.1435785 30.1121139,13.8457156 C30.1121139,12.8723324 29.8079293,12.1787963 29.1995602,11.7651075 C28.5830878,11.3595219 27.6178077,11.0066718 26.3037199,10.7065573 L23.8824167,10.1590362 C22.3006642,9.80212528 21.1812567,9.40871297 20.5241944,8.97879926 C19.3885622,8.23252768 18.820746,7.11718113 18.820746,5.63275964 C18.820746,4.02666063 19.3763889,2.70854898 20.4876746,1.6784247 C21.5989603,0.648245046 23.1726279,0.133155218 25.2086775,0.133155218 C27.082386,0.133155218 28.672297,0.587406283 29.9784107,1.49590841 C31.2924984,2.39628886 31.9495422,3.84019425 31.9495422,5.82762457 L29.6742353,5.82762457 C29.5525615,4.87044774 29.2929909,4.13634944 28.8955233,3.62532969 C28.1573733,2.69249943 26.9041428,2.22608431 25.1358317,2.22608431 C23.7081881,2.22608431 22.6820877,2.52621728 22.0575306,3.12648322 C21.4329365,3.72674916 21.1206395,4.42434604 21.1206395,5.21927387 C21.1206395,6.09532621 21.4856629,6.73614516 22.2157095,7.14173076 C22.6942979,7.40129225 23.7771578,7.72575333 25.464289,8.11511403 L27.9707593,8.68697255 C29.1793759,8.96275895 30.1121691,9.33994634 30.7691392,9.81853477 C31.904753,10.6540341 32.47256,11.8667485 32.47256,13.456678 C32.47256,15.4359682 31.7506258,16.8514477 30.3067573,17.7031165 C28.8710105,18.5548408 27.2000672,18.9807029 25.2939276,18.9807029 C23.0713561,18.9807029 21.3313786,18.4128959 20.073995,17.2772821 C18.8167037,16.1497715 18.2002221,14.620773 18.2245502,12.6902868 L20.4998571,12.6902868 L20.4998571,12.6898161 Z" id="path4381"></path>
                    <path d="M37.0957706,12.6898161 C37.1525522,13.7037708 37.3918464,14.5270968 37.8136533,15.1597942 C38.6167027,16.3440827 40.0321822,16.936227 42.0600917,16.936227 C42.9685938,16.936227 43.7959714,16.8064462 44.5422247,16.5468847 C45.9860931,16.0439682 46.7080274,15.1435785 46.7080274,13.8457156 C46.7080274,12.8723324 46.4038428,12.1787963 45.7954737,11.7651075 C45.1790012,11.3595219 44.2137212,11.0066718 42.8996334,10.7065573 L40.4783301,10.1590362 C38.8965776,9.80212528 37.7771702,9.40871297 37.1201079,8.97879926 C35.9844941,8.23252768 35.4166872,7.11718113 35.4166872,5.63275964 C35.4166872,4.02666063 35.9723301,2.70854898 37.0836158,1.6784247 C38.1949014,0.648245046 39.7685691,0.133155218 41.8046187,0.133155218 C43.6783272,0.133155218 45.2682382,0.587406283 46.5743519,1.49590841 C47.8884211,2.39628886 48.5454557,3.84019425 48.5454557,5.82762457 L46.2701488,5.82762457 C46.148475,4.87044774 45.8889043,4.13634944 45.4914367,3.62532969 C44.7532868,2.69249943 43.5000563,2.22608431 41.7317452,2.22608431 C40.3041016,2.22608431 39.2780012,2.52621728 38.6534441,3.12648322 C38.02885,3.72674916 37.716553,4.42434604 37.716553,5.21927387 C37.716553,6.09532621 38.0815764,6.73614516 38.811623,7.14173076 C39.2902114,7.40129225 40.3730713,7.72575333 42.0602025,8.11511403 L44.5666728,8.68697255 C45.7753078,8.96275895 46.7081011,9.33994634 47.3650527,9.81853477 C48.5006665,10.6540341 49.0684735,11.8667485 49.0684735,13.456678 C49.0684735,15.4359682 48.3465393,16.8514477 46.9026708,17.7031165 C45.466924,18.5548408 43.7959807,18.9807029 41.8898411,18.9807029 C39.6672696,18.9807029 37.9272921,18.4128959 36.6699085,17.2772821 C35.4126172,16.1497715 34.7961356,14.620773 34.8204637,12.6902868 L37.0957706,12.6902868 L37.0957706,12.6898161 Z" id="path4383"></path>
                    <path d="M0.848069453,31.7305396 L4.31565738,31.7305396 L9.4503123,46.8424008 L14.5484197,31.7305396 L17.9797369,31.7305396 L17.9797369,49.6045101 L15.6800926,49.6045101 L15.6800926,39.0552792 C15.6800926,38.6902652 15.688205,38.0859568 15.70443,37.2423542 C15.7206549,36.3987518 15.7287673,35.4943104 15.7287673,34.5290303 L10.63066,49.604344 L8.23369395,49.604344 L3.09903903,34.5290303 L3.09903903,35.0765516 C3.09903903,35.5145686 3.10715057,36.1837764 3.12337362,37.0841753 C3.14770913,37.9764526 3.15987688,38.6334872 3.15987688,39.0552792 L3.15987688,49.6045101 L0.848077759,49.6045101 L0.848077759,31.7305396 L0.848069453,31.7305396 Z" id="path4385"></path>
                    <path d="M29.404171,31.2460076 C32.5596281,31.2460076 34.8957184,32.2599255 36.412442,34.2877611 C37.5967305,35.8695136 38.1888748,37.8933807 38.1888748,40.3593626 C38.1888748,43.0280725 37.5115544,45.2465831 36.1569136,47.0148943 C34.5670396,49.0914599 32.2998913,50.1297429 29.3554687,50.1297429 C26.6057265,50.1297429 24.4439753,49.2212407 22.8702153,47.4042364 C21.4669184,45.6521317 20.7652699,43.437682 20.7652699,40.7608872 C20.7652699,38.3435802 21.3655266,36.2751361 22.5660401,34.555555 C24.1072395,32.3492271 26.3865702,31.246063 29.4040326,31.246063 L29.404171,31.2460076 Z M29.6478884,47.9640233 C31.7814293,47.9640233 33.3226994,47.2015359 34.2716988,45.6765614 C35.2289309,44.1434652 35.707547,42.3832759 35.707547,40.3959931 C35.707547,38.2950623 35.1559239,36.603815 34.0526776,35.3222508 C32.9575535,34.0406129 31.4568018,33.399794 29.5504226,33.399794 C27.7007877,33.399794 26.191914,34.0365521 25.0238012,35.3100683 C23.8556701,36.5754814 23.2716044,38.4452211 23.2716044,40.9192877 C23.2716044,42.8985779 23.7704982,44.5695212 24.7682859,45.9321175 C25.774177,47.2867582 27.4006374,47.9640785 29.647667,47.9640785 L29.6478884,47.9640233 Z" id="path4387"></path>
                    <path d="M41.171377,31.7319241 L48.4108389,31.7319241 C50.8685698,31.7319241 52.774765,32.6039155 54.1294241,34.3478984 C55.3380408,35.9215478 55.9423492,37.9372931 55.9423492,40.3951348 C55.9423492,42.2932082 55.5854382,44.0088207 54.8716164,45.5419722 C53.6143251,48.2512907 51.4525741,49.6059498 48.3863632,49.6059498 L41.1709894,49.6059498 L41.1709894,31.7319793 L41.171377,31.7319241 Z M47.9243688,47.5373581 C48.7436433,47.5373581 49.4169028,47.4521867 49.9441475,47.2818436 C50.8850993,46.9654858 51.6556991,46.3571166 52.2559466,45.4567361 C52.7345349,44.7348112 53.0792818,43.8100472 53.290187,42.6824443 C53.4118609,42.0091755 53.4726977,41.3845815 53.4726977,40.8086621 C53.4726977,38.5942124 53.03062,36.8745392 52.1464644,35.6496422 C51.2696923,34.4258528 49.8539358,33.8139581 47.8991952,33.8139581 L43.6040267,33.8139581 L43.6040267,47.5386734 L47.9235603,47.5386734 L47.9243688,47.5373581 Z" id="path4389"></path>
                    <path d="M61.6961529,31.7305396 L61.6961529,42.7784232 C61.6961529,44.0762675 61.9394987,45.1550665 62.4261904,46.0148202 C63.1481153,47.3126645 64.3648906,47.9615867 66.0765161,47.9615867 C68.1287168,47.9615867 69.523892,47.2599382 70.2620419,45.8566412 C70.6595058,45.0941447 70.8582379,44.0680443 70.8582379,42.7783401 L70.8582379,31.7304566 L73.3160611,31.7304566 L73.3160611,41.7685755 C73.3160611,43.9667818 73.019989,45.6580292 72.4278447,46.8423177 C71.3408871,48.9999157 69.2886864,50.0787147 66.2712425,50.0787147 C63.2536694,50.0787147 61.2055296,48.9999157 60.1268229,46.8423177 C59.5346786,45.6580292 59.2386065,43.9667818 59.2386065,41.7685755 L59.2386065,31.7304566 L61.6964298,31.7304566 L61.6961529,31.7305396 Z" id="path4391"></path>
                    <polygon id="path4393" points="77.0295144 31.7305396 79.4508177 31.7305396 79.4508177 47.4750611 88.50326 47.4750611 88.50326 49.604344 77.0295421 49.604344 77.0295421 31.7303735"></polygon>
                    <polygon id="path4395" points="91.1307802 31.7305396 104.161923 31.7305396 104.161923 33.9206797 93.4911432 33.9206797 93.4911432 39.3474382 103.358984 39.3474382 103.358984 41.4158916 93.4911432 41.4158916 93.4911432 47.4753103 104.344383 47.4753103 104.344383 49.6045932 91.1305033 49.6045932 91.1305033 31.7306227"></polygon>
                    <path d="M109.124915,43.8383023 C109.181696,44.8522571 109.42099,45.6755831 109.842797,46.3082805 C110.645847,47.4925689 112.061326,48.0847132 114.089236,48.0847132 C114.997738,48.0847132 115.825115,47.9549324 116.571369,47.695371 C118.015237,47.1924544 118.737171,46.2920648 118.737171,44.994202 C118.737171,44.0208186 118.432987,43.3272826 117.824618,42.9135938 C117.208145,42.5080081 116.242865,42.1551582 114.928777,41.8550437 L112.507474,41.3075224 C110.925722,40.9506116 109.806314,40.5571992 109.149252,40.1272856 C108.013638,39.3810139 107.445831,38.2656673 107.445831,36.7812459 C107.445831,35.1751468 108.001474,33.8570353 109.11276,32.826911 C110.224045,31.7967313 111.797713,31.2816415 113.833763,31.2816415 C115.707471,31.2816415 117.297382,31.7358925 118.603496,32.6443947 C119.917565,33.5447752 120.5746,34.9886805 120.5746,36.9761108 L118.299293,36.9761108 C118.177619,36.0189341 117.918048,35.2848357 117.520581,34.7738159 C116.782431,33.8409857 115.5292,33.3745706 113.760889,33.3745706 C112.333246,33.3745706 111.307145,33.6747035 110.682588,34.2749695 C110.057994,34.8752354 109.745697,35.5728323 109.745697,36.3677602 C109.745697,37.2438125 110.11072,37.8846315 110.840767,38.290217 C111.319355,38.5497785 112.402215,38.8742395 114.089347,39.2636003 L116.595817,39.8354589 C117.804452,40.1112453 118.737245,40.4884326 119.394197,40.967021 C120.529811,41.8025203 121.097618,43.0152347 121.097618,44.6051642 C121.097618,46.5844544 120.375683,47.999934 118.931815,48.8516028 C117.496068,49.703327 115.825125,50.1291891 113.918985,50.1291891 C111.696414,50.1291891 109.956436,49.5613822 108.699053,48.4257684 C107.441761,47.2982578 106.82528,45.7692593 106.849608,43.838773 L109.124915,43.838773 L109.124915,43.8383023 Z" id="path4397"></path>
                </g>
            </g>
        </g>
    </g>
</svg>
