
<svg width="128px" height="128px" viewBox="0 52 128 25" version="1.1" xmlns="http://www.w3.org/2000/svg" xmlns:xlink="http://www.w3.org/1999/xlink">
    <!-- Generator: Sketch 42 (36781) - http://www.bohemiancoding.com/sketch -->
    <desc>Created with Sketch.</desc>
    <defs></defs>
    <g id="cssnext-logo" stroke="none" stroke-width="1" fill="none" fill-rule="evenodd" transform="translate(0.000000, 52.000000)">
        <g id="cssnextlogo" fill-rule="nonzero" fill="#363636">
            <g id="Group" transform="translate(0.000000, 1.000000)">
                <path d="M7.5715,7.083 C6.919,7.083 6.3715,7.232 5.932,7.53 C5.489,7.828 5.128,8.211 4.851,8.681 C4.572,9.153 4.375,9.671 4.26,10.237 C4.1455,10.8055 4.088,11.363 4.088,11.9225 C4.088,12.4565 4.1455,13.0055 4.26,13.56 C4.3745,14.1205 4.5625,14.6245 4.8215,15.0745 C5.083,15.5265 5.4325,15.895 5.8725,16.183 C6.3145,16.4715 6.852,16.614 7.4875,16.614 C8.4645,16.614 9.2185,16.34 9.748,15.794 C10.2745,15.2445 10.607,14.512 10.742,13.5905 L14.688,13.5905 C14.4175,15.5665 13.6505,17.073 12.384,18.1115 C11.115,19.147 9.494,19.6645 7.515,19.6645 C6.4015,19.6645 5.379,19.4795 4.4485,19.1045 C3.5165,18.732 2.723,18.207 2.072,17.5335 C1.421,16.861 0.9105,16.06 0.547,15.1295 C0.1805,14.201 0,13.1795 0,12.0625 C0,10.912 0.1675,9.842 0.504,8.8525 C0.8395,7.863 1.334,7.01 1.988,6.2885 C2.64,5.567 3.4365,5.009 4.376,4.603 C5.317,4.2 6.394,3.9985 7.6025,3.9985 C8.4855,3.9985 9.3345,4.116 10.1515,4.3455 C10.9665,4.574 11.697,4.926 12.34,5.3955 C12.9825,5.866 13.506,6.4525 13.9095,7.1535 C14.313,7.8535 14.544,8.684 14.601,9.6445 L10.5975,9.6445 C10.3265,7.9375 9.319,7.083 7.5715,7.083 Z" id="Shape"></path>
                <path d="M20.432,15.5935 C20.6125,15.912 20.849,16.1695 21.1375,16.3715 C21.4245,16.573 21.7565,16.7235 22.1315,16.8195 C22.5055,16.9135 22.894,16.96 23.2975,16.96 C23.586,16.96 23.8885,16.929 24.204,16.8595 C24.522,16.794 24.809,16.688 25.069,16.543 C25.329,16.4 25.545,16.2075 25.717,15.9665 C25.8905,15.7295 25.976,15.4275 25.976,15.0595 C25.976,14.4455 25.5685,13.9865 24.7515,13.679 C23.936,13.372 22.798,13.0625 21.339,12.7555 C20.744,12.623 20.1625,12.462 19.5965,12.2815 C19.0295,12.099 18.525,11.857 18.085,11.56 C17.643,11.262 17.288,10.8895 17.0185,10.4375 C16.749,9.987 16.615,9.435 16.615,8.7815 C16.615,7.8225 16.802,7.034 17.1765,6.4205 C17.5515,5.806 18.0465,5.3215 18.6605,4.965 C19.2745,4.611 19.965,4.3605 20.7345,4.217 C21.5025,4.0715 22.2895,3.998 23.096,3.998 C23.9015,3.998 24.685,4.0755 25.4435,4.2285 C26.202,4.3825 26.879,4.642 27.473,5.006 C28.067,5.37 28.562,5.8545 28.955,6.459 C29.349,7.063 29.5845,7.8285 29.6615,8.749 L25.7735,8.749 C25.7165,7.962 25.4175,7.429 24.882,7.1505 C24.344,6.874 23.7085,6.7335 22.981,6.7335 C22.75,6.7335 22.5005,6.747 22.232,6.775 C21.9615,6.8055 21.7165,6.8665 21.497,6.9625 C21.277,7.058 21.0895,7.199 20.9355,7.3805 C20.7815,7.562 20.7045,7.808 20.7045,8.1155 C20.7045,8.48 20.8395,8.7775 21.1075,9.009 C21.377,9.2375 21.7285,9.426 22.1585,9.5695 C22.591,9.7155 23.0855,9.8445 23.642,9.9585 C24.199,10.073 24.766,10.2 25.3415,10.3325 C25.9365,10.4655 26.5165,10.631 27.0835,10.823 C27.6495,11.013 28.154,11.2685 28.5955,11.5835 C29.037,11.9035 29.3925,12.297 29.6615,12.7625 C29.931,13.236 30.065,13.8175 30.065,14.5065 C30.065,15.486 29.867,16.3065 29.474,16.97 C29.0815,17.6335 28.567,18.1635 27.934,18.5685 C27.2995,18.972 26.575,19.253 25.759,19.419 C24.9435,19.5805 24.1125,19.66 23.2685,19.66 C22.404,19.66 21.559,19.576 20.735,19.402 C19.9085,19.2275 19.1745,18.94 18.5315,18.5375 C17.888,18.134 17.3585,17.6025 16.947,16.9395 C16.5345,16.2785 16.3085,15.4465 16.271,14.448 L20.158,14.448 C20.1565,14.8995 20.2495,15.277 20.432,15.5935 Z" id="Shape"></path>
                <path d="M35.897,15.5935 C36.0775,15.912 36.314,16.1695 36.6025,16.3715 C36.891,16.5735 37.2215,16.7235 37.596,16.8195 C37.97,16.9135 38.3585,16.96 38.762,16.96 C39.0505,16.96 39.353,16.929 39.669,16.8595 C39.988,16.794 40.2735,16.688 40.535,16.543 C40.794,16.4 41.0095,16.2075 41.183,15.9665 C41.355,15.7295 41.442,15.4275 41.442,15.0595 C41.442,14.4455 41.0345,13.9865 40.216,13.679 C39.4005,13.372 38.2625,13.0625 36.8035,12.7555 C36.2085,12.623 35.627,12.462 35.0615,12.2815 C34.495,12.099 33.991,11.857 33.5495,11.56 C33.1075,11.262 32.7525,10.8895 32.4845,10.4375 C32.214,9.987 32.081,9.435 32.081,8.7815 C32.081,7.8225 32.266,7.034 32.6425,6.4205 C33.0165,5.806 33.511,5.3215 34.125,4.965 C34.74,4.611 35.4305,4.3605 36.199,4.217 C36.9665,4.0715 37.7545,3.998 38.56,3.998 C39.366,3.998 40.1495,4.0755 40.9075,4.2285 C41.6655,4.3825 42.343,4.642 42.9385,5.006 C43.5325,5.37 44.027,5.8545 44.4195,6.459 C44.8135,7.063 45.049,7.8285 45.126,8.749 L41.239,8.749 C41.1815,7.962 40.883,7.429 40.3455,7.1505 C39.808,6.874 39.1725,6.7335 38.445,6.7335 C38.214,6.7335 37.9645,6.747 37.696,6.775 C37.4265,6.8055 37.1815,6.8665 36.961,6.9625 C36.742,7.058 36.553,7.199 36.3995,7.3805 C36.2455,7.562 36.169,7.808 36.169,8.1155 C36.169,8.48 36.3035,8.7775 36.572,9.009 C36.8425,9.2375 37.1935,9.426 37.6235,9.5695 C38.0565,9.7155 38.551,9.8445 39.107,9.9585 C39.664,10.073 40.232,10.2 40.8065,10.3325 C41.4015,10.4655 41.983,10.631 42.5485,10.823 C43.1145,11.013 43.619,11.2685 44.0605,11.5835 C44.502,11.9035 44.857,12.297 45.128,12.7625 C45.3965,13.236 45.5315,13.8175 45.5315,14.5065 C45.5315,15.486 45.3335,16.3065 44.9405,16.97 C44.5465,17.6335 44.0335,18.1635 43.3995,18.5685 C42.765,18.972 42.041,19.253 41.2245,19.419 C40.4085,19.5805 39.578,19.66 38.735,19.66 C37.8695,19.66 37.024,19.576 36.2005,19.402 C35.374,19.2275 34.6405,18.94 33.997,18.5375 C33.353,18.134 32.824,17.6025 32.4125,16.9395 C32,16.2785 31.774,15.4465 31.7375,14.448 L35.6235,14.448 C35.6225,14.8995 35.7135,15.277 35.897,15.5935 Z" id="Shape"></path>
                <path d="M51.7215,4.4045 L51.261,6.652 L51.3185,6.652 C51.9335,5.7875 52.7105,5.1405 53.6515,4.709 C54.5915,4.2755 55.5805,4.0595 56.6175,4.0595 C58.0195,4.0595 59.0605,4.3665 59.743,4.9815 C60.4225,5.597 60.765,6.5655 60.765,7.892 C60.765,8.2175 60.726,8.64 60.6505,9.158 C60.573,9.677 60.4675,10.2255 60.3315,10.801 L58.517,19.2965 L56.069,19.2965 L57.97,10.5985 C57.99,10.4435 58.018,10.266 58.0565,10.065 C58.094,9.863 58.133,9.652 58.171,9.433 C58.211,9.214 58.245,9.0005 58.272,8.7985 C58.3015,8.5975 58.315,8.429 58.315,8.295 C58.315,7.585 58.0655,7.0615 57.5665,6.7255 C57.0675,6.389 56.4535,6.221 55.7235,6.221 C55.052,6.221 54.385,6.3845 53.7215,6.7105 C53.059,7.0355 52.498,7.4485 52.0375,7.9475 C51.596,8.3325 51.25,8.7985 51.0015,9.345 C50.752,9.893 50.5505,10.462 50.397,11.0575 L48.6685,19.2965 L46.25,19.2965 L49.36,4.407 L51.721,4.407 L51.7215,4.4045 L51.7215,4.4045 Z" id="Shape"></path>
                <path d="M65.115263,13.8805 C65.115263,14.4535 65.2207744,14.97 65.431797,15.4225 C65.6438198,15.8715 65.9308506,16.247 66.2963899,16.5455 C66.660929,16.843 67.0739734,17.0725 67.5350229,17.237 C67.9960724,17.3985 68.4756239,17.4805 68.9746775,17.4805 C70.068795,17.4805 70.9708919,17.237 71.6819682,16.747 C72.3935447,16.2575 72.9211013,15.551 73.2661384,14.631 L75.7144013,14.631 C75.5223807,15.4545 75.2143476,16.18 74.7923023,16.803 C74.3687568,17.429 73.8607022,17.947 73.2661384,18.3595 C72.6715745,18.7745 72.0070031,19.0835 71.2784249,19.295 C70.5488466,19.5055 69.7812641,19.614 68.9746775,19.614 C67.7465456,19.614 66.7224356,19.426 65.906848,19.0515 C65.0902603,18.677 64.4416907,18.1985 63.9626392,17.6125 C63.4820876,17.027 63.1455515,16.3845 62.954531,15.681 C62.7625104,14.983 62.666,14.3055 62.666,13.6515 C62.666,12.23 62.8725222,10.93 63.2860666,9.7485 C63.6991109,8.569 64.2561708,7.555 64.9572461,6.712 C65.6563211,5.8655 66.4729088,5.2145 67.405509,4.7525 C68.3341087,4.2925 69.3102135,4.06 70.3288229,4.06 C72.518058,4.06 74.1162297,4.6365 75.1243379,5.79 C76.1334463,6.9415 76.6360003,8.5625 76.6360003,10.6545 C76.6360003,11.039 76.6089974,11.4045 76.5509911,11.7485 C76.493485,12.095 76.4454798,12.374 76.4074757,12.585 L65.2022724,12.585 C65.1447662,13.008 65.115263,13.4385 65.115263,13.8805 Z M74.0882267,8.8835 C73.9832154,8.3745 73.7906947,7.924 73.514165,7.53 C73.2356351,7.136 72.8655954,6.82 72.4035457,6.5785 C71.9429963,6.3395 71.3764354,6.2205 70.7033631,6.2205 C69.994287,6.2205 69.3557184,6.331 68.7901577,6.55 C68.2225967,6.7695 67.7275436,7.074 67.3054982,7.457 C66.8834529,7.842 66.5279147,8.288 66.2398838,8.798 C65.9508528,9.307 65.720328,9.848 65.5473094,10.4245 L74.1887375,10.4245 C74.2267415,9.905 74.193738,9.3915 74.0882267,8.8835 Z" id="Shape"></path>
                <polygon id="Shape" points="79.602 4.4045 82.425 4.4045 84.6715 9.821 89.1055 4.4045 92.0735 4.4045 85.679 11.6035 89.481 19.2945 86.688 19.2945 83.98 13.1885 78.91 19.2945 75.9725 19.2945 82.9135 11.4025"></polygon>
                <path d="M101.0295,4.4045 L100.566,6.5655 L97.6,6.5655 L95.7565,15.3215 C95.737,15.495 95.7175,15.6565 95.699,15.811 C95.6795,15.964 95.6685,16.127 95.6685,16.299 C95.6685,16.6835 95.818,16.948 96.116,17.091 C96.414,17.2365 96.7545,17.3095 97.141,17.3095 C97.3905,17.3095 97.6295,17.283 97.86,17.2365 C98.0905,17.1865 98.32,17.1255 98.5505,17.049 L98.119,19.2945 C97.832,19.334 97.545,19.3675 97.2555,19.395 C96.9655,19.4255 96.6805,19.439 96.391,19.439 C95.9305,19.439 95.4985,19.405 95.0945,19.339 C94.691,19.2705 94.3415,19.1465 94.0425,18.964 C93.745,18.7835 93.5045,18.537 93.3235,18.23 C93.141,17.924 93.047,17.53 93.047,17.0495 C93.047,16.8385 93.061,16.637 93.091,16.445 C93.1195,16.253 93.1535,16.0415 93.1915,15.8115 L95.1505,6.566 L92.6445,6.566 L93.1055,4.4075 L95.6115,4.4075 L96.535,0 L98.983,0 L98.059,4.4065 L101.028,4.4065 L101.028,4.404 L101.0295,4.404 L101.0295,4.4045 Z" id="Shape"></path>
            </g>
            <g id="Group" transform="translate(108.000000, 0.000000)">
                <path d="M7.8545,1.5555 C7.3715,1.5555 6.991,1.7905 6.717,2.266 C6.4415,2.739 6.2505,3.2615 6.1475,3.829 L5.1905,8.5085 C5.052,9.1145 4.8495,9.628 4.582,10.051 C4.3125,10.4715 4.034,10.819 3.742,11.084 C3.447,11.3515 3.159,11.5575 2.8745,11.705 C2.592,11.8505 2.368,11.942 2.215,11.978 L2.1905,12.0515 C2.3115,12.0715 2.465,12.1235 2.6555,12.2085 C2.845,12.2925 3.0305,12.436 3.2125,12.6345 C3.393,12.832 3.549,13.0825 3.678,13.3845 C3.807,13.6865 3.872,14.069 3.872,14.535 C3.872,14.6905 3.8555,14.8445 3.8205,15 C3.7845,15.156 3.7505,15.328 3.717,15.52 L2.76,20.175 C2.708,20.4705 2.6835,20.759 2.6835,21.054 C2.6835,21.4505 2.7355,21.7805 2.839,22.05 C2.943,22.3175 3.1745,22.449 3.5375,22.449 L4.831,22.449 L4.495,24.001 L2.6845,24.001 C2.424,24.001 2.162,23.949 1.896,23.8455 C1.6265,23.742 1.3915,23.597 1.184,23.407 C0.975,23.22 0.8095,22.9765 0.679,22.684 C0.55,22.388 0.4855,22.0525 0.4855,21.6755 C0.4855,21.519 0.4935,21.35 0.51,21.1685 C0.5265,20.989 0.553,20.8035 0.588,20.6135 L1.5695,15.934 C1.603,15.743 1.63,15.559 1.6465,15.376 C1.662,15.1955 1.6705,15.0295 1.6705,14.872 C1.6705,14.2695 1.512,13.7915 1.1935,13.4375 C0.875,13.084 0.4895,12.906 0.0425,12.906 L0.4295,11.148 C0.7045,11.148 0.985,11.075 1.2695,10.9285 C1.5535,10.7825 1.822,10.582 2.0715,10.3215 C2.3205,10.063 2.547,9.7455 2.746,9.365 C2.944,8.984 3.094,8.5635 3.1975,8.097 L4.18,3.388 C4.2835,2.8375 4.465,2.3525 4.723,1.927 C4.982,1.5065 5.275,1.152 5.603,0.8685 C5.929,0.5845 6.275,0.367 6.638,0.222 C7,0.076 7.344,0.0025 7.6695,0.0025 L9.4815,0.0025 L9.146,1.554 L7.8545,1.554 L7.8545,1.5555 L7.8545,1.5555 Z" id="Shape"></path>
                <polygon id="Shape" points="11.7955 4.288 8.726 20.089 7.005 20.089 10.0715 4.288"></polygon>
                <polygon id="Shape" points="14.7705 5.1705 11.9895 19.203 10.759 19.203 13.551 5.1705"></polygon>
                <polygon id="Shape" points="17.5265 5.8305 15.0425 18.542 14.206 18.542 16.693 5.8305"></polygon>
                <polygon id="Shape" points="19.7375 6.7845 17.542 17.591 17.076 17.591 19.2625 6.7845"></polygon>
            </g>
        </g>
    </g>
</svg>
