
<svg width="256px" height="49px" viewBox="0 0 256 49" version="1.1" xmlns="http://www.w3.org/2000/svg" xmlns:xlink="http://www.w3.org/1999/xlink">
    <!-- Generator: Sketch 42 (36781) - http://www.bohemiancoding.com/sketch -->
    <desc>Created with Sketch.</desc>
    <defs></defs>
    <g id="cssnextlogo" stroke="none" stroke-width="1" fill="none" fill-rule="evenodd">
        <g id="Group" transform="translate(0.000000, 2.000000)" fill-rule="nonzero" fill="#4A4A4A">
            <path d="M15.143,14.166 C13.838,14.166 12.743,14.464 11.864,15.06 C10.978,15.656 10.256,16.422 9.702,17.362 C9.144,18.306 8.75,19.342 8.52,20.474 C8.291,21.611 8.176,22.726 8.176,23.845 C8.176,24.913 8.291,26.011 8.52,27.12 C8.749,28.241 9.125,29.249 9.643,30.149 C10.166,31.053 10.865,31.79 11.745,32.366 C12.629,32.943 13.704,33.228 14.975,33.228 C16.929,33.228 18.437,32.68 19.496,31.588 C20.549,30.489 21.214,29.024 21.484,27.181 L29.376,27.181 C28.835,31.133 27.301,34.146 24.768,36.223 C22.23,38.294 18.988,39.329 15.03,39.329 C12.803,39.329 10.758,38.959 8.897,38.209 C7.033,37.464 5.446,36.414 4.144,35.067 C2.842,33.722 1.821,32.12 1.094,30.259 C0.361,28.402 0,26.359 0,24.125 C0,21.824 0.335,19.684 1.008,17.705 C1.679,15.726 2.668,14.02 3.976,12.577 C5.28,11.134 6.873,10.018 8.752,9.206 C10.634,8.4 12.788,7.997 15.205,7.997 C16.971,7.997 18.669,8.232 20.303,8.691 C21.933,9.148 23.394,9.852 24.68,10.791 C25.965,11.732 27.012,12.905 27.819,14.307 C28.626,15.707 29.088,17.368 29.202,19.289 L21.195,19.289 C20.653,15.875 18.638,14.166 15.143,14.166 Z" id="Shape"></path>
            <path d="M40.864,31.187 C41.225,31.824 41.698,32.339 42.275,32.743 C42.849,33.146 43.513,33.447 44.263,33.639 C45.011,33.827 45.788,33.92 46.595,33.92 C47.172,33.92 47.777,33.858 48.408,33.719 C49.044,33.588 49.618,33.376 50.138,33.086 C50.658,32.8 51.09,32.415 51.434,31.933 C51.781,31.459 51.952,30.855 51.952,30.119 C51.952,28.891 51.137,27.973 49.503,27.358 C47.872,26.744 45.596,26.125 42.678,25.511 C41.488,25.246 40.325,24.924 39.193,24.563 C38.059,24.198 37.05,23.714 36.17,23.12 C35.286,22.524 34.576,21.779 34.037,20.875 C33.498,19.974 33.23,18.87 33.23,17.563 C33.23,15.645 33.604,14.068 34.353,12.841 C35.103,11.612 36.093,10.643 37.321,9.93 C38.549,9.222 39.93,8.721 41.469,8.434 C43.005,8.143 44.579,7.996 46.192,7.996 C47.803,7.996 49.37,8.151 50.887,8.457 C52.404,8.765 53.758,9.284 54.946,10.012 C56.134,10.74 57.124,11.709 57.91,12.918 C58.698,14.126 59.169,15.657 59.323,17.498 L51.547,17.498 C51.433,15.924 50.835,14.858 49.764,14.301 C48.688,13.748 47.417,13.467 45.962,13.467 C45.5,13.467 45.001,13.494 44.464,13.55 C43.923,13.611 43.433,13.733 42.994,13.925 C42.554,14.116 42.179,14.398 41.871,14.761 C41.563,15.124 41.409,15.616 41.409,16.231 C41.409,16.96 41.679,17.555 42.215,18.018 C42.754,18.475 43.457,18.852 44.317,19.139 C45.182,19.431 46.171,19.689 47.284,19.917 C48.398,20.146 49.532,20.4 50.683,20.665 C51.873,20.931 53.033,21.262 54.167,21.646 C55.299,22.026 56.308,22.537 57.191,23.167 C58.074,23.807 58.785,24.594 59.323,25.525 C59.862,26.472 60.13,27.635 60.13,29.013 C60.13,30.972 59.734,32.613 58.948,33.94 C58.163,35.267 57.134,36.327 55.868,37.137 C54.599,37.944 53.15,38.506 51.518,38.838 C49.887,39.161 48.225,39.32 46.537,39.32 C44.808,39.32 43.118,39.152 41.47,38.804 C39.817,38.455 38.349,37.88 37.063,37.075 C35.776,36.268 34.717,35.205 33.894,33.879 C33.069,32.557 32.617,30.893 32.542,28.896 L40.316,28.896 C40.313,29.799 40.499,30.554 40.864,31.187 Z" id="Shape"></path>
            <path d="M71.794,31.187 C72.155,31.824 72.628,32.339 73.205,32.743 C73.782,33.147 74.443,33.447 75.192,33.639 C75.94,33.827 76.717,33.92 77.524,33.92 C78.101,33.92 78.706,33.858 79.338,33.719 C79.976,33.588 80.547,33.376 81.07,33.086 C81.588,32.8 82.019,32.415 82.366,31.933 C82.71,31.459 82.884,30.855 82.884,30.119 C82.884,28.891 82.069,27.973 80.432,27.358 C78.801,26.744 76.525,26.125 73.607,25.511 C72.417,25.246 71.254,24.924 70.123,24.563 C68.99,24.198 67.982,23.714 67.099,23.12 C66.215,22.524 65.505,21.779 64.969,20.875 C64.428,19.974 64.162,18.87 64.162,17.563 C64.162,15.645 64.532,14.068 65.285,12.841 C66.033,11.612 67.022,10.643 68.25,9.93 C69.48,9.222 70.861,8.721 72.398,8.434 C73.933,8.143 75.509,7.996 77.12,7.996 C78.732,7.996 80.299,8.151 81.815,8.457 C83.331,8.765 84.686,9.284 85.877,10.012 C87.065,10.74 88.054,11.709 88.839,12.918 C89.627,14.126 90.098,15.657 90.252,17.498 L82.478,17.498 C82.363,15.924 81.766,14.858 80.691,14.301 C79.616,13.748 78.345,13.467 76.89,13.467 C76.428,13.467 75.929,13.494 75.392,13.55 C74.853,13.611 74.363,13.733 73.922,13.925 C73.484,14.116 73.106,14.398 72.799,14.761 C72.491,15.124 72.338,15.616 72.338,16.231 C72.338,16.96 72.607,17.555 73.144,18.018 C73.685,18.475 74.387,18.852 75.247,19.139 C76.113,19.431 77.102,19.689 78.214,19.917 C79.328,20.146 80.464,20.4 81.613,20.665 C82.803,20.931 83.966,21.262 85.097,21.646 C86.229,22.026 87.238,22.537 88.121,23.167 C89.004,23.807 89.714,24.594 90.256,25.525 C90.793,26.472 91.063,27.635 91.063,29.013 C91.063,30.972 90.667,32.613 89.881,33.94 C89.093,35.267 88.067,36.327 86.799,37.137 C85.53,37.944 84.082,38.506 82.449,38.838 C80.817,39.161 79.156,39.32 77.47,39.32 C75.739,39.32 74.048,39.152 72.401,38.804 C70.748,38.455 69.281,37.88 67.994,37.075 C66.706,36.268 65.648,35.205 64.825,33.879 C64,32.557 63.548,30.893 63.475,28.896 L71.247,28.896 C71.245,29.799 71.427,30.554 71.794,31.187 Z" id="Shape"></path>
            <path d="M103.443,8.809 L102.522,13.304 L102.637,13.304 C103.867,11.575 105.421,10.281 107.303,9.418 C109.183,8.551 111.161,8.119 113.235,8.119 C116.039,8.119 118.121,8.733 119.486,9.963 C120.845,11.194 121.53,13.131 121.53,15.784 C121.53,16.435 121.452,17.28 121.301,18.316 C121.146,19.354 120.935,20.451 120.663,21.602 L117.034,38.593 L112.138,38.593 L115.94,21.197 C115.98,20.887 116.036,20.532 116.113,20.13 C116.188,19.726 116.266,19.304 116.342,18.866 C116.422,18.428 116.49,18.001 116.544,17.597 C116.603,17.195 116.63,16.858 116.63,16.59 C116.63,15.17 116.131,14.123 115.133,13.451 C114.135,12.778 112.907,12.442 111.447,12.442 C110.104,12.442 108.77,12.769 107.443,13.421 C106.118,14.071 104.996,14.897 104.075,15.895 C103.192,16.665 102.5,17.597 102.003,18.69 C101.504,19.786 101.101,20.924 100.794,22.115 L97.337,38.593 L92.5,38.593 L98.72,8.814 L103.442,8.814 L103.443,8.809 L103.443,8.809 Z" id="Shape"></path>
            <path d="M130.23,27.761 C130.23,28.907 130.441,29.94 130.863,30.845 C131.287,31.743 131.861,32.494 132.592,33.091 C133.321,33.686 134.147,34.145 135.069,34.474 C135.991,34.797 136.95,34.961 137.948,34.961 C140.136,34.961 141.94,34.474 143.362,33.494 C144.785,32.515 145.84,31.102 146.53,29.262 L151.426,29.262 C151.042,30.909 150.426,32.36 149.582,33.606 C148.735,34.858 147.719,35.894 146.53,36.719 C145.341,37.549 144.012,38.167 142.555,38.59 C141.096,39.011 139.561,39.228 137.948,39.228 C135.492,39.228 133.444,38.852 131.813,38.103 C130.18,37.354 128.883,36.397 127.925,35.225 C126.964,34.054 126.291,32.769 125.909,31.362 C125.525,29.966 125.332,28.611 125.332,27.303 C125.332,24.46 125.745,21.86 126.572,19.497 C127.398,17.138 128.512,15.11 129.914,13.424 C131.312,11.731 132.945,10.429 134.81,9.505 C136.667,8.585 138.619,8.12 140.656,8.12 C145.034,8.12 148.23,9.273 150.246,11.58 C152.264,13.883 153.269,17.125 153.269,21.309 C153.269,22.078 153.215,22.809 153.099,23.497 C152.984,24.19 152.888,24.748 152.812,25.17 L130.404,25.17 C130.289,26.016 130.23,26.877 130.23,27.761 Z M148.174,17.767 C147.964,16.749 147.579,15.848 147.026,15.06 C146.469,14.272 145.729,13.64 144.805,13.157 C143.884,12.679 142.751,12.441 141.405,12.441 C139.987,12.441 138.71,12.662 137.579,13.1 C136.444,13.539 135.454,14.148 134.61,14.914 C133.766,15.684 133.055,16.576 132.479,17.596 C131.901,18.614 131.44,19.696 131.094,20.849 L148.375,20.849 C148.451,19.81 148.385,18.783 148.174,17.767 Z" id="Shape"></path>
            <polygon id="Shape" points="159.204 8.809 164.85 8.809 169.343 19.642 178.211 8.809 184.147 8.809 171.358 23.207 178.962 38.589 173.376 38.589 167.96 26.377 157.82 38.589 151.945 38.589 165.827 22.805"></polygon>
            <path d="M202.059,8.809 L201.132,13.131 L195.2,13.131 L191.513,30.643 C191.474,30.99 191.435,31.313 191.398,31.622 C191.359,31.928 191.337,32.254 191.337,32.598 C191.337,33.367 191.636,33.896 192.232,34.182 C192.828,34.473 193.509,34.619 194.282,34.619 C194.781,34.619 195.259,34.566 195.72,34.473 C196.181,34.373 196.64,34.251 197.101,34.098 L196.238,38.589 C195.664,38.668 195.09,38.735 194.511,38.79 C193.931,38.851 193.361,38.878 192.782,38.878 C191.861,38.878 190.997,38.81 190.189,38.678 C189.382,38.541 188.683,38.293 188.085,37.928 C187.49,37.567 187.009,37.074 186.647,36.46 C186.282,35.848 186.094,35.06 186.094,34.099 C186.094,33.677 186.122,33.274 186.182,32.89 C186.239,32.506 186.307,32.083 186.383,31.623 L190.301,13.132 L185.289,13.132 L186.211,8.815 L191.223,8.815 L193.07,0 L197.966,0 L196.118,8.813 L202.056,8.813 L202.056,8.808 L202.059,8.808 L202.059,8.809 Z" id="Shape"></path>
        </g>
        <g id="Group" transform="translate(216.000000, 0.000000)" fill-rule="nonzero" fill="#4A4A4A">
            <path d="M15.709,3.111 C14.743,3.111 13.982,3.581 13.434,4.532 C12.883,5.478 12.501,6.523 12.295,7.658 L10.381,17.017 C10.104,18.229 9.699,19.256 9.164,20.102 C8.625,20.943 8.068,21.638 7.484,22.168 C6.894,22.703 6.318,23.115 5.749,23.41 C5.184,23.701 4.736,23.884 4.43,23.956 L4.381,24.103 C4.623,24.143 4.93,24.247 5.311,24.417 C5.69,24.585 6.061,24.872 6.425,25.269 C6.786,25.664 7.098,26.165 7.356,26.769 C7.614,27.373 7.744,28.138 7.744,29.07 C7.744,29.381 7.711,29.689 7.641,30 C7.569,30.312 7.501,30.656 7.434,31.04 L5.52,40.35 C5.416,40.941 5.367,41.518 5.367,42.108 C5.367,42.901 5.471,43.561 5.678,44.1 C5.886,44.635 6.349,44.898 7.075,44.898 L9.662,44.898 L8.99,48.002 L5.369,48.002 C4.848,48.002 4.324,47.898 3.792,47.691 C3.253,47.484 2.783,47.194 2.368,46.814 C1.95,46.44 1.619,45.953 1.358,45.368 C1.1,44.776 0.971,44.105 0.971,43.351 C0.971,43.038 0.987,42.7 1.02,42.337 C1.053,41.978 1.106,41.607 1.176,41.227 L3.139,31.868 C3.206,31.486 3.26,31.118 3.293,30.752 C3.324,30.391 3.341,30.059 3.341,29.744 C3.341,28.539 3.024,27.583 2.387,26.875 C1.75,26.168 0.979,25.812 0.085,25.812 L0.859,22.296 C1.409,22.296 1.97,22.15 2.539,21.857 C3.107,21.565 3.644,21.164 4.143,20.643 C4.641,20.126 5.094,19.491 5.492,18.73 C5.888,17.968 6.188,17.127 6.395,16.194 L8.36,6.776 C8.567,5.675 8.93,4.705 9.446,3.854 C9.964,3.013 10.55,2.304 11.206,1.737 C11.858,1.169 12.55,0.734 13.276,0.444 C14,0.152 14.688,0.005 15.339,0.005 L18.963,0.005 L18.292,3.108 L15.709,3.108 L15.709,3.111 L15.709,3.111 Z" id="Shape"></path>
            <polygon id="Shape" points="23.591 8.576 17.452 40.178 14.01 40.178 20.143 8.576 23.591 8.576"></polygon>
            <polygon id="Shape" points="29.541 10.341 23.979 38.406 21.518 38.406 27.102 10.341 29.541 10.341"></polygon>
            <polygon id="Shape" points="35.053 11.661 30.085 37.084 28.412 37.084 33.386 11.661 35.053 11.661"></polygon>
            <polygon id="Shape" points="39.475 13.569 35.084 35.182 34.152 35.182 38.525 13.569 39.475 13.569"></polygon>
        </g>
    </g>
</svg>
