
<svg width="129px" height="129px" viewBox="0 40 129 49" version="1.1" xmlns="http://www.w3.org/2000/svg" xmlns:xlink="http://www.w3.org/1999/xlink">
    <!-- Generator: Sketch 42 (36781) - http://www.bohemiancoding.com/sketch -->
    <desc>Created with Sketch.</desc>
    <defs></defs>
    <g id="Group" stroke="none" stroke-width="1" fill="none" fill-rule="evenodd" transform="translate(0.000000, 40.000000)">
        <path d="M88.4380172,36.3944198 C88.4380172,36.3944198 87.8433432,34.302809 90.05799,30.2631297 C92.2521307,26.2439562 93.9746337,28.4380969 93.9746337,28.4380969 C93.9746337,28.4380969 95.8611845,30.4886955 93.7080556,33.5440876 C91.5549272,36.6199856 88.4380172,36.3944198 88.4380172,36.3944198 Z M71.5205775,39.3062699 C68.9983415,45.9091977 62.8670511,43.2229135 62.8670511,43.2229135 C62.8670511,43.2229135 62.1698476,40.8647249 64.1589285,34.2412911 C66.148009,27.6383633 70.823374,30.2221177 70.823374,30.2221177 C70.823374,30.2221177 74.0428141,32.703342 71.5205775,39.3062699 Z M66.9477426,11.6436933 C66.9477426,11.6436933 70.7618561,1.69828959 71.6846255,6.53770252 C72.6073953,11.3771155 63.6872908,25.7723185 63.6872908,25.7723185 C63.7693148,22.5323725 66.9477426,11.6436933 66.9477426,11.6436933 Z M12.4018169,36.3944198 C12.5658648,29.9965519 16.7490862,27.2077375 18.2050113,28.6021446 C19.6609364,29.9965519 19.1277807,33.0109318 16.3799784,34.8974827 C13.6526821,36.7840336 12.4018169,36.3944198 12.4018169,36.3944198 Z M127.97356,35.3486145 C127.7685,33.1954859 125.820431,33.9952192 125.820431,33.9952192 C125.820431,33.9952192 122.703521,36.4149257 119.955719,36.1483479 C117.228423,35.861264 118.089674,29.75048 118.089674,29.75048 C118.089674,29.75048 118.684348,24.1318395 117.064375,23.6602018 C115.444402,23.1885641 113.455322,25.116127 113.455322,25.116127 C113.455322,25.116127 110.974097,27.8639291 109.805256,31.349947 L109.47716,31.4524768 C109.47716,31.4524768 109.846268,25.3211866 109.415642,23.9267796 C109.087546,23.2295761 106.134684,23.2910939 105.663046,24.5214533 C105.170903,25.7518124 102.812714,34.343821 102.648666,37.9528748 C102.648666,37.9528748 98.0348191,41.8695184 93.9951398,42.52571 C89.9554599,43.1613956 88.9916789,40.6391591 88.9916789,40.6391591 C88.9916789,40.6391591 99.9623817,37.5837669 99.572768,28.8277106 C99.2036603,20.071654 90.7346874,23.3116001 89.7709064,24.0293094 C88.8481371,24.7265132 83.906194,27.6998811 82.4502691,35.9637941 C82.4092569,36.2508777 82.3067268,37.4812371 82.3067268,37.4812371 C82.3067268,37.4812371 78.0619878,40.3315693 75.7037992,41.0902909 C75.7037992,41.0902909 82.3067268,29.9760458 74.2478743,24.911067 C70.5978082,22.7169264 67.6859584,27.3307735 67.6859584,27.3307735 C67.6859584,27.3307735 78.5951434,15.1912291 76.1754369,4.91772957 C75.0271018,0.0373046222 72.5868892,-0.49585103 70.3312307,0.303882461 C66.9272365,1.6572776 65.6353596,3.62585236 65.6353596,3.62585236 C65.6353596,3.62585236 61.2265721,10.0237203 60.2012727,19.5384984 C59.1759733,29.0532764 57.6790366,40.5366292 57.6790366,40.5366292 C57.6790366,40.5366292 55.5874255,42.5872278 53.6598629,42.6897579 C51.7323003,42.7922878 52.5935518,36.9480815 52.5935518,36.9480815 C52.5935518,36.9480815 54.0904889,28.027977 53.9879588,26.5310399 C53.8854287,25.034103 53.7828992,24.2138635 51.9988778,23.6807077 C50.2353632,23.1475521 48.2872944,25.4032106 48.2872944,25.4032106 C48.2872944,25.4032106 43.1813037,33.1339677 42.750678,34.3233151 L42.4840999,34.8154587 L42.2175221,34.4873631 C42.2175221,34.4873631 45.826576,23.9472857 42.3815701,23.8037436 C38.9365642,23.6396957 36.6809057,27.5563393 36.6809057,27.5563393 C36.6809057,27.5563393 32.7642621,34.1182552 32.6002141,34.8564707 L32.3336363,34.5283751 C32.3336363,34.5283751 33.9536094,26.9001478 33.6255135,25.0135969 C33.2974179,23.1270462 31.533903,23.51666 31.533903,23.51666 C31.533903,23.51666 29.2782442,23.2500819 28.6835708,24.7060071 C28.0888971,26.1619323 25.9357684,35.7792403 25.6691906,38.8346322 C25.6691906,38.8346322 20.0300441,42.8743117 16.3184605,42.9153237 C12.6068768,42.9768416 12.9964906,40.5571351 12.9964906,40.5571351 C12.9964906,40.5571351 26.5919599,35.902276 22.8803763,26.715594 C21.2193914,24.3574053 19.2713226,23.6191898 16.5440263,23.6602018 C13.796224,23.7217197 10.5767841,25.3827048 8.36213745,30.3246475 C7.31633211,32.6828361 6.88570638,34.9179888 6.88570638,36.6199856 L6.88570638,36.6199856 C6.88570638,36.6199856 4.342964,37.1121292 3.05108679,36.0253119 C1.75920958,34.9590008 1.02099407,36.0253119 1.02099407,36.0253119 C1.02099407,36.0253119 -1.23466451,39.244752 0.959476119,40.1060035 C3.15361673,40.967255 6.55761058,41.7669883 6.55761058,41.7669883 L6.55761058,41.7669883 C6.86520041,43.1613956 7.78796984,45.43756 10.4742541,47.4676527 C14.4934276,50.5230451 22.2446907,46.996015 22.2446907,46.996015 L25.4231187,45.1094644 C25.4231187,45.1094644 25.5256488,47.9597966 27.8428251,48.3904223 C30.1600018,48.8210481 31.1237831,48.3494103 35.1429565,38.5885605 C37.5011452,33.5850996 37.6651931,33.8516774 37.6651931,33.8516774 L37.9317709,33.7901593 C37.9317709,33.7901593 36.1067381,43.3459494 36.8039416,45.9297039 C37.5011452,48.5134583 40.5565373,48.2468802 40.5565373,48.2468802 C40.5565373,48.2468802 42.2175221,48.8415539 43.5709175,44.1046708 C44.9243125,39.367788 47.4875608,34.425845 47.4875608,34.425845 L47.8156567,34.425845 C47.8156567,34.425845 46.6878274,43.9406231 48.4103304,47.0575331 C50.1328331,50.1744431 54.5826323,47.9803024 54.5826323,47.9803024 C54.5826323,47.9803024 57.6995422,46.3398235 58.1916861,45.8476799 C58.1916861,45.8476799 61.8827639,48.9645899 67.1117906,48.3904223 C78.7796975,46.0937516 82.9219063,42.9768416 82.9219063,42.9768416 C82.9219063,42.9768416 84.9314935,48.0418206 91.1243012,48.5134583 C98.2193732,49.0466139 102.095005,44.5763085 102.095005,44.5763085 C102.095005,44.5763085 102.033487,47.4676527 104.514711,48.4929522 C106.995935,49.5182513 108.65692,44.1046708 108.65692,44.1046708 L112.79913,33.0109318 L113.168237,33.0109318 C113.168237,33.0109318 113.373298,40.1060035 117.474495,41.2953506 C121.596198,42.4641919 126.907249,38.3629944 126.907249,38.3629944 C126.907249,38.3629944 128.199126,37.501743 127.97356,35.3486145" id="Shape" fill="#363636" fill-rule="nonzero"></path>
    </g>
</svg>
