
<svg width="121px" height="112px" viewBox="0 0 121 112" version="1.1" xmlns="http://www.w3.org/2000/svg" xmlns:xlink="http://www.w3.org/1999/xlink">
    <g id="silverstripe-logo-vertical-light-web" stroke="none" stroke-width="1" fill="none" fill-rule="evenodd">
        <path d="M9.179,101.631 C9.179,101.079 8.976,100.63 8.572,100.284 C8.165,99.939 7.655,99.623 7.043,99.338 C6.429,99.054 5.763,98.758 5.047,98.458 C4.33,98.156 3.665,97.784 3.053,97.344 C2.44,96.902 1.929,96.354 1.524,95.699 C1.117,95.042 0.915,94.204 0.915,93.185 C0.915,92.304 1.061,91.54 1.355,90.892 C1.649,90.244 2.068,89.704 2.612,89.273 C3.157,88.841 3.801,88.52 4.543,88.313 C5.284,88.107 6.114,88.003 7.029,88.003 C8.084,88.003 9.077,88.094 10.009,88.274 C10.941,88.456 11.71,88.72 12.316,89.067 L11.202,92.045 C10.821,91.804 10.25,91.583 9.492,91.385 C8.73,91.186 7.91,91.087 7.029,91.087 C6.201,91.087 5.567,91.25 5.125,91.578 C4.685,91.908 4.465,92.346 4.465,92.9 C4.465,93.419 4.668,93.85 5.073,94.194 C5.479,94.541 5.987,94.861 6.603,95.154 C7.214,95.447 7.881,95.749 8.598,96.062 C9.314,96.372 9.979,96.747 10.593,97.187 C11.204,97.628 11.716,98.174 12.121,98.819 C12.527,99.468 12.73,100.274 12.73,101.243 C12.73,102.209 12.57,103.043 12.25,103.744 C11.93,104.441 11.48,105.026 10.903,105.491 C10.323,105.959 9.624,106.304 8.803,106.527 C7.983,106.75 7.082,106.865 6.097,106.865 C4.801,106.865 3.661,106.744 2.676,106.503 C1.691,106.26 0.967,106.017 0.5,105.776 L1.641,102.745 C1.83,102.85 2.077,102.962 2.378,103.082 C2.683,103.203 3.022,103.315 3.403,103.418 C3.781,103.522 4.185,103.609 4.606,103.678 C5.03,103.747 5.467,103.782 5.916,103.782 C6.969,103.782 7.777,103.604 8.337,103.25 C8.899,102.896 9.179,102.355 9.179,101.631" id="Fill-1" fill="#4a4a4a"></path>
        <path d="M14.762,106.503 L18.132,106.503 L18.132,93.548 L14.762,93.548 L14.762,106.503 Z M14.27,89.894 C14.27,89.393 14.455,88.965 14.826,88.612 C15.198,88.259 15.713,88.082 16.368,88.082 C17.025,88.082 17.557,88.259 17.962,88.612 C18.368,88.965 18.572,89.393 18.572,89.894 C18.572,90.397 18.368,90.815 17.962,91.151 C17.557,91.488 17.025,91.657 16.368,91.657 C15.713,91.657 15.198,91.488 14.826,91.151 C14.455,90.815 14.27,90.397 14.27,89.894 L14.27,89.894 Z" id="Fill-2" fill="#4a4a4a"></path>
        <path d="M24.142,102.15 C24.142,102.754 24.22,103.196 24.373,103.471 C24.529,103.747 24.78,103.887 25.127,103.887 C25.332,103.887 25.535,103.869 25.734,103.833 C25.933,103.799 26.18,103.722 26.473,103.599 L26.836,106.243 C26.559,106.381 26.137,106.52 25.566,106.657 C24.997,106.795 24.407,106.865 23.804,106.865 C22.819,106.865 22.069,106.636 21.549,106.178 C21.031,105.721 20.772,104.965 20.772,103.912 L20.772,88.366 L24.142,88.366 L24.142,102.15" id="Fill-3" fill="#4a4a4a"></path>
        <polyline id="Fill-4" fill="#4a4a4a" points="32.343 100.336 32.784 102.33 32.913 102.33 33.278 100.284 35.479 93.548 39.108 93.548 33.692 106.632 31.644 106.632 26.022 93.548 29.934 93.548 32.343 100.336"></polyline>
        <path d="M45.632,95.879 C44.754,95.879 44.106,96.142 43.685,96.67 C43.264,97.197 43.012,97.901 42.925,98.781 L47.718,98.781 C47.788,97.847 47.646,97.133 47.294,96.631 C46.941,96.13 46.387,95.879 45.632,95.879 Z M50.439,105.388 C49.921,105.803 49.217,106.152 48.328,106.437 C47.437,106.722 46.492,106.865 45.491,106.865 C43.4,106.865 41.872,106.255 40.904,105.039 C39.938,103.821 39.453,102.15 39.453,100.025 C39.453,97.746 39.998,96.036 41.086,94.895 C42.174,93.755 43.703,93.185 45.671,93.185 C46.328,93.185 46.968,93.272 47.588,93.444 C48.211,93.616 48.763,93.902 49.247,94.299 C49.73,94.696 50.119,95.23 50.413,95.906 C50.707,96.58 50.854,97.418 50.854,98.42 C50.854,98.781 50.832,99.17 50.79,99.585 C50.745,99.999 50.68,100.43 50.595,100.881 L42.848,100.881 C42.898,101.969 43.179,102.789 43.686,103.34 C44.195,103.894 45.017,104.17 46.153,104.17 C46.858,104.17 47.491,104.062 48.051,103.846 C48.609,103.63 49.037,103.41 49.328,103.186 L50.439,105.388 L50.439,105.388 Z" id="Fill-5" fill="#4a4a4a"></path>
        <path d="M60.198,96.709 C59.662,96.519 59.18,96.424 58.748,96.424 C58.143,96.424 57.637,96.584 57.231,96.902 C56.826,97.223 56.554,97.634 56.416,98.134 L56.416,106.503 L53.047,106.503 L53.047,93.548 L55.665,93.548 L56.054,95.258 L56.156,95.258 C56.452,94.619 56.848,94.126 57.349,93.781 C57.849,93.435 58.437,93.263 59.11,93.263 C59.559,93.263 60.069,93.358 60.639,93.548 L60.198,96.709" id="Fill-6" fill="#4a4a4a"></path>
        <path d="M71.009,101.89 C71.009,101.165 70.792,100.574 70.362,100.116 C69.93,99.658 69.389,99.251 68.742,98.896 C68.093,98.545 67.39,98.212 66.629,97.901 C65.869,97.589 65.166,97.215 64.518,96.773 C63.87,96.333 63.33,95.788 62.899,95.14 C62.467,94.494 62.251,93.668 62.251,92.667 C62.251,91.25 62.743,90.128 63.728,89.299 C64.713,88.468 66.112,88.055 67.924,88.055 C68.979,88.055 69.937,88.133 70.802,88.287 C71.665,88.443 72.336,88.643 72.821,88.884 L72.175,90.775 C71.777,90.585 71.192,90.403 70.426,90.23 C69.657,90.059 68.789,89.973 67.821,89.973 C66.682,89.973 65.826,90.227 65.256,90.737 C64.688,91.246 64.401,91.847 64.401,92.537 C64.401,93.211 64.619,93.773 65.047,94.221 C65.48,94.672 66.021,95.072 66.669,95.426 C67.317,95.779 68.02,96.13 68.779,96.476 C69.541,96.821 70.244,97.223 70.89,97.68 C71.54,98.139 72.08,98.687 72.512,99.326 C72.943,99.963 73.16,100.759 73.16,101.709 C73.16,102.486 73.02,103.186 72.743,103.807 C72.468,104.429 72.062,104.965 71.526,105.414 C70.991,105.863 70.343,106.208 69.584,106.45 C68.822,106.692 67.96,106.813 66.993,106.813 C65.699,106.813 64.626,106.712 63.78,106.515 C62.933,106.317 61.912,106.097 61.446,105.855 L62.536,103.912 C62.933,104.136 63.521,104.355 64.297,104.571 C65.075,104.789 65.946,104.896 66.915,104.896 C67.485,104.896 68.02,104.839 68.522,104.726 C69.023,104.614 69.455,104.433 69.817,104.182 C70.18,103.933 70.469,103.616 70.685,103.237 C70.901,102.858 71.009,102.409 71.009,101.89" id="Fill-7" fill="#4a4a4a"></path>
        <path d="M73.822,93.548 L75.841,93.548 L75.841,90.983 L77.913,90.387 L77.913,93.548 L81.439,93.548 L81.439,95.362 L77.913,95.362 L77.913,102.536 C77.913,103.436 78.028,104.072 78.252,104.441 C78.477,104.813 78.856,104.999 79.392,104.999 C79.842,104.999 80.22,104.953 80.532,104.858 C80.841,104.763 81.188,104.635 81.567,104.48 L82.034,106.06 C81.567,106.286 81.058,106.468 80.506,106.605 C79.953,106.744 79.355,106.813 78.718,106.813 C77.664,106.813 76.921,106.515 76.489,105.92 C76.056,105.323 75.841,104.325 75.841,102.925 L75.841,95.362 L73.822,95.362 L73.822,93.548" id="Fill-8" fill="#4a4a4a"></path>
        <path d="M90.368,95.543 C89.85,95.37 89.357,95.284 88.893,95.284 C88.149,95.284 87.561,95.487 87.13,95.893 C86.697,96.298 86.43,96.811 86.327,97.434 L86.327,106.503 L84.254,106.503 L84.254,93.548 L85.704,93.548 L86.093,95.129 L86.197,95.129 C86.525,94.541 86.917,94.088 87.376,93.769 C87.832,93.448 88.416,93.29 89.126,93.29 C89.626,93.29 90.187,93.375 90.808,93.548 L90.368,95.543" id="Fill-9" fill="#4a4a4a"></path>
        <path d="M92.588,106.503 L94.66,106.503 L94.66,93.548 L92.588,93.548 L92.588,106.503 Z M92.148,89.609 C92.148,89.214 92.281,88.871 92.549,88.585 C92.817,88.301 93.158,88.159 93.573,88.159 C93.987,88.159 94.341,88.301 94.635,88.585 C94.929,88.871 95.076,89.214 95.076,89.609 C95.076,90.007 94.929,90.335 94.635,90.594 C94.341,90.854 93.987,90.983 93.573,90.983 C93.158,90.983 92.817,90.854 92.549,90.594 C92.281,90.335 92.148,90.007 92.148,89.609 L92.148,89.609 Z" id="Fill-10" fill="#4a4a4a"></path>
        <path d="M102.693,95.05 C101.812,95.05 101.117,95.279 100.606,95.737 C100.097,96.195 99.738,96.89 99.532,97.822 L99.532,104.248 C99.842,104.489 100.196,104.675 100.595,104.806 C100.992,104.936 101.519,104.999 102.175,104.999 C103.366,104.999 104.313,104.555 105.011,103.663 C105.712,102.776 106.062,101.467 106.062,99.74 C106.062,99.032 106,98.389 105.88,97.81 C105.759,97.231 105.564,96.74 105.297,96.333 C105.029,95.927 104.682,95.612 104.262,95.389 C103.837,95.162 103.316,95.05 102.693,95.05 Z M97.458,93.548 L98.883,93.548 L99.274,95.102 L99.378,95.102 C99.774,94.498 100.288,94.036 100.917,93.716 C101.548,93.396 102.27,93.237 103.081,93.237 C104.807,93.237 106.094,93.747 106.942,94.765 C107.788,95.784 108.212,97.452 108.212,99.766 C108.212,100.854 108.068,101.834 107.783,102.706 C107.499,103.578 107.097,104.317 106.579,104.923 C106.062,105.527 105.435,105.993 104.702,106.321 C103.968,106.65 103.151,106.813 102.252,106.813 C101.612,106.813 101.107,106.775 100.737,106.695 C100.364,106.618 99.963,106.485 99.532,106.294 L99.532,111.683 L97.458,111.683 L97.458,93.548 L97.458,93.548 Z" id="Fill-11" fill="#4a4a4a"></path>
        <path d="M115.604,95.05 C114.585,95.05 113.768,95.318 113.156,95.854 C112.543,96.39 112.174,97.304 112.054,98.599 L118.48,98.599 C118.48,97.288 118.231,96.367 117.728,95.84 C117.226,95.314 116.519,95.05 115.604,95.05 Z M120.061,105.465 C119.542,105.88 118.889,106.208 118.105,106.45 C117.317,106.692 116.485,106.813 115.604,106.813 C114.62,106.813 113.763,106.653 113.038,106.334 C112.313,106.014 111.717,105.556 111.25,104.96 C110.786,104.364 110.439,103.652 110.213,102.824 C109.99,101.994 109.879,101.061 109.879,100.025 C109.879,97.814 110.369,96.13 111.356,94.972 C112.338,93.817 113.746,93.237 115.576,93.237 C116.166,93.237 116.752,93.302 117.339,93.431 C117.927,93.561 118.453,93.807 118.92,94.169 C119.387,94.531 119.765,95.047 120.061,95.712 C120.355,96.376 120.5,97.252 120.5,98.341 C120.5,98.911 120.448,99.542 120.346,100.233 L112.029,100.233 C112.029,100.992 112.105,101.665 112.262,102.253 C112.418,102.84 112.659,103.336 112.986,103.744 C113.314,104.148 113.743,104.459 114.269,104.675 C114.796,104.892 115.439,104.999 116.199,104.999 C116.786,104.999 117.374,104.896 117.961,104.688 C118.549,104.48 118.99,104.239 119.282,103.963 L120.061,105.465 L120.061,105.465 Z" id="Fill-12" fill="#4a4a4a"></path>
        <path d="M53.519,50.348 C59.384,46.332 60.882,38.325 56.869,32.461 L46.246,39.725 C43.317,41.731 39.313,40.984 37.303,38.049 C35.296,35.117 36.047,31.114 38.978,29.106 C38.98,29.105 38.985,29.102 38.988,29.1 L48.673,22.471 L54.904,18.203 C60.768,14.188 62.268,6.18 58.254,0.317 L31.728,18.475 C31.721,18.482 31.713,18.485 31.707,18.489 C22.914,24.509 20.665,36.524 26.688,45.318 C32.708,54.116 44.723,56.363 53.514,50.343 L53.519,50.348" id="Fill-13" fill="#4a4a4a"></path>
        <path d="M67.483,25.185 L67.483,25.188 L67.474,25.193 C67.451,25.21 67.429,25.229 67.406,25.246 L67.485,25.19 C61.621,29.206 60.121,37.214 64.136,43.077 L74.754,35.809 L74.75,35.804 C77.683,33.796 81.689,34.543 83.692,37.476 C85.704,40.408 84.953,44.412 82.02,46.421 L66.096,57.323 C60.23,61.339 58.73,69.347 62.745,75.21 L73.365,67.944 L89.288,57.038 L89.288,57.037 C98.085,51.016 100.335,39.006 94.314,30.21 C88.29,21.411 76.276,19.165 67.483,25.185" id="Fill-14" fill="#4a4a4a"></path>
    </g>
</svg>
