
<svg width="128px" height="112px" viewBox="0 8 128 112" version="1.1" xmlns="http://www.w3.org/2000/svg" xmlns:xlink="http://www.w3.org/1999/xlink">
    <!-- Generator: Sketch 42 (36781) - http://www.bohemiancoding.com/sketch -->
    <desc>Created with Sketch.</desc>
    <defs></defs>
    <g id="silverstripe-logo-vertical-light-web" stroke="none" stroke-width="1" fill="none" fill-rule="evenodd" transform="translate(0.000000, 8.000000)">
        <path d="M9.71001653,101.631 C9.71001653,101.079 9.49527273,100.63 9.06790083,100.284 C8.63735537,99.939 8.09785124,99.623 7.45044628,99.338 C6.80092562,99.054 6.09639669,98.758 5.33897521,98.458 C4.58049587,98.156 3.87702479,97.784 3.22961983,97.344 C2.58115702,96.902 2.04059504,96.354 1.61216529,95.699 C1.18161983,95.042 0.967933884,94.204 0.967933884,93.185 C0.967933884,92.304 1.12238017,91.54 1.43338843,90.892 C1.74439669,90.244 2.18763636,89.704 2.76310744,89.273 C3.33963636,88.841 4.02089256,88.52 4.80581818,88.313 C5.58968595,88.107 6.46770248,88.003 7.43563636,88.003 C8.55166942,88.003 9.6021157,88.094 10.5880331,88.274 C11.5739504,88.456 12.387438,88.72 13.0284959,89.067 L11.8500496,92.045 C11.4470083,91.804 10.8429752,91.583 10.041124,91.385 C9.23504132,91.186 8.36760331,91.087 7.43563636,91.087 C6.55973554,91.087 5.88905785,91.25 5.4214876,91.578 C4.95603306,91.908 4.72330579,92.346 4.72330579,92.9 C4.72330579,93.419 4.93804959,93.85 5.36647934,94.194 C5.79596694,94.541 6.33335537,94.861 6.98499174,95.154 C7.63133884,95.447 8.33692562,95.749 9.09540496,96.062 C9.85282645,96.372 10.5562975,96.747 11.2058182,97.187 C11.8521653,97.628 12.3937851,98.174 12.8222149,98.819 C13.2517025,99.468 13.4664463,100.274 13.4664463,101.243 C13.4664463,102.209 13.2971901,103.043 12.9586777,103.744 C12.6201653,104.441 12.1441322,105.026 11.5337521,105.491 C10.9201983,105.959 10.1807603,106.304 9.31226446,106.527 C8.44482645,106.75 7.49170248,106.865 6.44971901,106.865 C5.0787438,106.865 3.87279339,106.744 2.83080992,106.503 C1.78882645,106.26 1.02294215,106.017 0.52892562,105.776 L1.73593388,102.745 C1.93586777,102.85 2.19715702,102.962 2.51557025,103.082 C2.83821488,103.203 3.19682645,103.315 3.59986777,103.418 C3.99973554,103.522 4.42710744,103.609 4.87246281,103.678 C5.32099174,103.747 5.78327273,103.782 6.25824793,103.782 C7.37216529,103.782 8.22690909,103.604 8.81930579,103.25 C9.41381818,102.896 9.71001653,102.355 9.71001653,101.631" id="Fill-1" fill="#363636" fill-rule="nonzero"></path>
        <path d="M15.616,106.503 L19.1809587,106.503 L19.1809587,93.548 L15.616,93.548 L15.616,106.503 Z M15.0955372,89.894 C15.0955372,89.393 15.2912397,88.965 15.6837025,88.612 C16.0772231,88.259 16.6220165,88.082 17.3149091,88.082 C18.0099174,88.082 18.5726942,88.259 19.001124,88.612 C19.4306116,88.965 19.6464132,89.393 19.6464132,89.894 C19.6464132,90.397 19.4306116,90.815 19.001124,91.151 C18.5726942,91.488 18.0099174,91.657 17.3149091,91.657 C16.6220165,91.657 16.0772231,91.488 15.6837025,91.151 C15.2912397,90.815 15.0955372,90.397 15.0955372,89.894 L15.0955372,89.894 Z" id="Fill-2" fill="#363636" fill-rule="nonzero"></path>
        <path d="M25.5386446,102.15 C25.5386446,102.754 25.621157,103.196 25.7830083,103.471 C25.9480331,103.747 26.2135537,103.887 26.5806281,103.887 C26.7974876,103.887 27.0122314,103.869 27.2227438,103.833 C27.4332562,103.799 27.6945455,103.722 28.0044959,103.599 L28.3884959,106.243 C28.0954711,106.381 27.6490579,106.52 27.0450248,106.657 C26.4431074,106.795 25.8189752,106.865 25.1810909,106.865 C24.1391074,106.865 23.345719,106.636 22.7956364,106.178 C22.2476694,105.721 21.973686,104.965 21.973686,103.912 L21.973686,88.366 L25.5386446,88.366 L25.5386446,102.15" id="Fill-3" fill="#363636" fill-rule="nonzero"></path>
        <polyline id="Fill-4" fill="#363636" fill-rule="nonzero" points="34.2140826 100.336 34.680595 102.33 34.8170579 102.33 35.2031736 100.284 37.5315041 93.548 41.3704463 93.548 35.641124 106.632 33.4746446 106.632 27.527405 93.548 31.665719 93.548 34.2140826 100.336"></polyline>
        <path d="M53.3569587,105.388 C52.8089917,105.803 52.0642645,106.152 51.1238347,106.437 C50.1812893,106.722 49.1816198,106.865 48.1227107,106.865 C45.9107438,106.865 44.2943471,106.255 43.2703471,105.039 C42.2484628,103.821 41.735405,102.15 41.735405,100.025 C41.735405,97.746 42.3119339,96.036 43.462876,94.895 C44.6138182,93.755 46.2312727,93.185 48.313124,93.185 C49.0081322,93.185 49.685157,93.272 50.3410248,93.444 C51.0000661,93.616 51.584,93.902 52.096,94.299 C52.6069421,94.696 53.0184463,95.23 53.3294545,95.906 C53.6404628,96.58 53.7959669,97.418 53.7959669,98.42 C53.7959669,98.781 53.7726942,99.17 53.7282645,99.585 C53.6806612,99.999 53.6119008,100.43 53.5219835,100.881 L45.3268099,100.881 C45.3797025,101.969 45.6769587,102.789 46.2132893,103.34 C46.7517355,103.894 47.6212893,104.17 48.8230083,104.17 C49.5687934,104.17 50.2384132,104.062 50.8308099,103.846 C51.4210909,103.63 51.8738512,103.41 52.181686,103.186 L53.3569587,105.388 Z M48.2718678,95.879 C47.3430744,95.879 46.6575868,96.142 46.2122314,96.67 C45.766876,97.197 45.5002975,97.901 45.4082645,98.781 L50.4785455,98.781 C50.552595,97.847 50.4023802,97.133 50.0300165,96.631 C49.656595,96.13 49.0705455,95.879 48.2718678,95.879 Z" id="Fill-5" fill="#363636" fill-rule="nonzero"></path>
        <path d="M63.6805289,96.709 C63.1135207,96.519 62.6036364,96.424 62.1466446,96.424 C61.5066446,96.424 60.9713719,96.584 60.5418843,96.902 C60.1134545,97.223 59.825719,97.634 59.6797355,98.134 L59.6797355,106.503 L56.1158347,106.503 L56.1158347,93.548 L58.8852893,93.548 L59.2967934,95.258 L59.4046942,95.258 C59.7178182,94.619 60.1367273,94.126 60.6667107,93.781 C61.1956364,93.435 61.8176529,93.263 62.5295868,93.263 C63.004562,93.263 63.5440661,93.358 64.1470413,93.548 L63.6805289,96.709" id="Fill-6" fill="#363636" fill-rule="nonzero"></path>
        <path d="M75.1169587,101.89 C75.1169587,101.165 74.887405,100.574 74.4325289,100.116 C73.9755372,99.658 73.4032397,99.251 72.7188099,98.896 C72.0322645,98.545 71.288595,98.212 70.4835702,97.901 C69.6796033,97.589 68.9359339,97.215 68.2504463,96.773 C67.5649587,96.333 66.993719,95.788 66.5377851,95.14 C66.0807934,94.494 65.8522975,93.668 65.8522975,92.667 C65.8522975,91.25 66.3727603,90.128 67.4147438,89.299 C68.4567273,88.468 69.9366612,88.055 71.8534876,88.055 C72.9695207,88.055 73.9829421,88.133 74.8979835,88.287 C75.8109091,88.443 76.5207273,88.643 77.0337851,88.884 L76.3504132,90.775 C75.9293884,90.585 75.3105455,90.403 74.5002314,90.23 C73.6867438,90.059 72.7685289,89.973 71.7445289,89.973 C70.5396364,89.973 69.6341157,90.227 69.0311405,90.737 C68.430281,91.246 68.1266777,91.847 68.1266777,92.537 C68.1266777,93.211 68.3572893,93.773 68.8100496,94.221 C69.2680992,94.672 69.8403967,95.072 70.5258843,95.426 C71.2113719,95.779 71.9550413,96.13 72.7579504,96.476 C73.5640331,96.821 74.3077025,97.223 74.9910744,97.68 C75.6786777,98.139 76.2499174,98.687 76.7069091,99.326 C77.162843,99.963 77.3923967,100.759 77.3923967,101.709 C77.3923967,102.486 77.2442975,103.186 76.9512727,103.807 C76.6603636,104.429 76.230876,104.965 75.6638678,105.414 C75.0979174,105.863 74.4124298,106.208 73.6095207,106.45 C72.803438,106.692 71.8915702,106.813 70.8686281,106.813 C69.4997686,106.813 68.3646942,106.712 67.4697521,106.515 C66.5737521,106.317 65.493686,106.097 65.0007273,105.855 L66.1537851,103.912 C66.5737521,104.136 67.1957686,104.355 68.0166612,104.571 C68.8396694,104.789 69.7610579,104.896 70.7861157,104.896 C71.3890909,104.896 71.9550413,104.839 72.4860826,104.726 C73.0160661,104.614 73.4730579,104.433 73.856,104.182 C74.24,103.933 74.545719,103.616 74.7742149,103.237 C75.0027107,102.858 75.1169587,102.409 75.1169587,101.89" id="Fill-7" fill="#363636" fill-rule="nonzero"></path>
        <path d="M78.0926942,93.548 L80.2284959,93.548 L80.2284959,90.983 L82.4203636,90.387 L82.4203636,93.548 L86.1503471,93.548 L86.1503471,95.362 L82.4203636,95.362 L82.4203636,102.536 C82.4203636,103.436 82.5420165,104.072 82.7789752,104.441 C83.0169917,104.813 83.4179174,104.999 83.9849256,104.999 C84.4609587,104.999 84.8608264,104.953 85.190876,104.858 C85.5177521,104.763 85.8848264,104.635 86.2857521,104.48 L86.7797686,106.06 C86.2857521,106.286 85.7473058,106.468 85.1633719,106.605 C84.5783802,106.744 83.9457851,106.813 83.2719339,106.813 C82.1569587,106.813 81.3709752,106.515 80.9139835,105.92 C80.4559339,105.323 80.2284959,104.325 80.2284959,102.925 L80.2284959,95.362 L78.0926942,95.362 L78.0926942,93.548" id="Fill-8" fill="#363636" fill-rule="nonzero"></path>
        <path d="M95.5959008,95.543 C95.0479339,95.37 94.5264132,95.284 94.0355702,95.284 C93.2485289,95.284 92.6265124,95.487 92.1705785,95.893 C91.7125289,96.298 91.4300826,96.811 91.321124,97.434 L91.321124,106.503 L89.1281983,106.503 L89.1281983,93.548 L90.6620826,93.548 L91.0735868,95.129 L91.1836033,95.129 C91.5305785,94.541 91.9452562,94.088 92.4308099,93.769 C92.9131901,93.448 93.5309752,93.29 94.2820496,93.29 C94.8109752,93.29 95.4044298,93.375 96.0613554,93.548 L95.5959008,95.543" id="Fill-9" fill="#363636" fill-rule="nonzero"></path>
        <path d="M97.9443306,106.503 L100.136198,106.503 L100.136198,93.548 L97.9443306,93.548 L97.9443306,106.503 Z M97.478876,89.609 C97.478876,89.214 97.6195702,88.871 97.9030744,88.585 C98.1865785,88.301 98.5473058,88.159 98.986314,88.159 C99.4242645,88.159 99.7987438,88.301 100.109752,88.585 C100.42076,88.871 100.576264,89.214 100.576264,89.609 C100.576264,90.007 100.42076,90.335 100.109752,90.594 C99.7987438,90.854 99.4242645,90.983 98.986314,90.983 C98.5473058,90.983 98.1865785,90.854 97.9030744,90.594 C97.6195702,90.335 97.478876,90.007 97.478876,89.609 L97.478876,89.609 Z" id="Fill-10" fill="#363636" fill-rule="nonzero"></path>
        <path d="M103.096066,93.548 L104.603504,93.548 L105.017124,95.102 L105.12714,95.102 C105.54605,94.498 106.089785,94.036 106.755174,93.716 C107.422678,93.396 108.186446,93.237 109.044364,93.237 C110.870215,93.237 112.231669,93.747 113.128727,94.765 C114.023669,95.784 114.472198,97.452 114.472198,99.766 C114.472198,100.854 114.319868,101.834 114.01838,102.706 C113.71795,103.578 113.292694,104.317 112.744727,104.923 C112.197818,105.527 111.534545,105.993 110.75914,106.321 C109.982678,106.65 109.118413,106.813 108.167405,106.813 C107.49038,106.813 106.956165,106.775 106.56476,106.695 C106.170182,106.618 105.745983,106.485 105.29005,106.294 L105.29005,111.683 L103.096066,111.683 L103.096066,93.548 Z M108.633917,95.05 C107.70195,95.05 106.966744,95.279 106.426182,95.737 C105.887736,96.195 105.507967,96.89 105.29005,97.822 L105.29005,104.248 C105.617983,104.489 105.992463,104.675 106.414545,104.806 C106.834512,104.936 107.392,104.999 108.08595,104.999 C109.345851,104.999 110.347636,104.555 111.086017,103.663 C111.82757,102.776 112.197818,101.467 112.197818,99.74 C112.197818,99.032 112.132231,98.389 112.005289,97.81 C111.877289,97.231 111.671008,96.74 111.388562,96.333 C111.105058,95.927 110.737983,95.612 110.293686,95.389 C109.844099,95.162 109.292959,95.05 108.633917,95.05 Z" id="Fill-11" fill="#363636" fill-rule="nonzero"></path>
        <path d="M127.006678,105.465 C126.457653,105.88 125.766876,106.208 124.937521,106.45 C124.103934,106.692 123.223802,106.813 122.291835,106.813 C121.250909,106.813 120.344331,106.653 119.577388,106.334 C118.810446,106.014 118.179967,105.556 117.68595,104.96 C117.195107,104.364 116.828033,103.652 116.588959,102.824 C116.353058,101.994 116.235636,101.061 116.235636,100.025 C116.235636,97.814 116.753983,96.13 117.798083,94.972 C118.836893,93.817 120.326347,93.237 122.262215,93.237 C122.886347,93.237 123.506248,93.302 124.127207,93.431 C124.749223,93.561 125.305653,93.807 125.799669,94.169 C126.293686,94.531 126.693554,95.047 127.006678,95.712 C127.317686,96.376 127.471074,97.252 127.471074,98.341 C127.471074,98.911 127.416066,99.542 127.308165,100.233 L118.510017,100.233 C118.510017,100.992 118.590413,101.665 118.756496,102.253 C118.921521,102.84 119.176463,103.336 119.52238,103.744 C119.869355,104.148 120.323174,104.459 120.879603,104.675 C121.437091,104.892 122.117289,104.999 122.921256,104.999 C123.542215,104.999 124.164231,104.896 124.78519,104.688 C125.407207,104.48 125.873719,104.239 126.182612,103.963 L127.006678,105.465 Z M122.291835,95.05 C121.213884,95.05 120.34962,95.318 119.702215,95.854 C119.053752,96.39 118.663405,97.304 118.536463,98.599 L125.334215,98.599 C125.334215,97.288 125.07081,96.367 124.538711,95.84 C124.007669,95.314 123.259769,95.05 122.291835,95.05 Z" id="Fill-12" fill="#363636" fill-rule="nonzero"></path>
        <path d="M56.6151405,50.348 C62.819438,46.332 64.4040992,38.325 60.1589421,32.461 L48.9213884,39.725 C45.8229421,41.731 41.5873058,40.984 39.4610248,38.049 C37.3379174,35.117 38.1323636,31.114 41.2329256,29.106 C41.2350413,29.105 41.2403306,29.102 41.2435041,29.1 L51.4887934,22.471 L58.0802645,18.203 C64.2835041,14.188 65.870281,6.18 61.6240661,0.317 L33.5635041,18.475 C33.5560992,18.482 33.5476364,18.485 33.5412893,18.489 C24.2396033,24.509 21.8604959,36.524 28.2319339,45.318 C34.6001983,54.116 47.310281,56.363 56.6098512,50.343 L56.6151405,50.348" id="Fill-13" fill="#363636" fill-rule="nonzero"></path>
        <path d="M71.3869752,25.185 L71.3869752,25.188 L71.3774545,25.193 C71.353124,25.21 71.3298512,25.229 71.3055207,25.246 L71.3890909,25.19 C65.1858512,29.206 63.5990744,37.214 67.8463471,43.077 L79.0786116,35.809 L79.0743802,35.804 C82.1770579,33.796 86.4148099,34.543 88.533686,37.476 C90.6620826,40.408 89.8676364,44.412 86.7649587,46.421 L69.9197355,57.323 C63.7143802,61.339 62.1276033,69.347 66.374876,75.21 L77.6092562,67.944 L94.4534215,57.038 L94.4534215,57.037 C103.759339,51.016 106.139504,39.006 99.7701818,30.21 C93.397686,21.411 80.6886612,19.165 71.3869752,25.185" id="Fill-14" fill="#363636" fill-rule="nonzero"></path>
    </g>
</svg>
