
<svg width="128px" height="128px" viewBox="0 45 128 38" version="1.1" xmlns="http://www.w3.org/2000/svg" xmlns:xlink="http://www.w3.org/1999/xlink">
    <!-- Generator: Sketch 42 (36781) - http://www.bohemiancoding.com/sketch -->
    <desc>Created with Sketch.</desc>
    <defs></defs>
    <g id="socketio-logo" stroke="none" stroke-width="1" fill="none" fill-rule="evenodd" transform="translate(0.000000, 45.000000)">
        <g id="Page-1" fill-rule="nonzero" fill="#363636">
            <g>
                <g id="logo">
                    <path d="M14.5006993,1.10993007 C19.3521678,-0.134265734 24.7138462,0.590769231 28.9924476,3.23132867 C34.380979,6.45370629 37.8987413,12.5493706 37.9882517,18.8240559 C38.1851748,25.1613986 34.8822378,31.445035 29.5742657,34.8911888 C23.6665734,38.8654545 15.4942657,39.0176224 9.46125874,35.2402797 C3.31188811,31.5703497 -0.277482517,24.1678322 0.644475524,17.0606993 C1.38741259,9.55076923 7.18769231,2.92699301 14.5006993,1.10993007 Z M13.7577622,4.18013986 C7.2234965,6.47160839 2.65846154,13.346014 3.29398601,20.2741259 C3.53566434,28.8313287 11.7706294,36.0548252 20.292028,35.2044755 C29.252028,34.9448951 36.5918881,25.958042 35.114965,17.1144056 C34.1661538,7.28615385 22.9236364,0.51020979 13.7577622,4.18013986 Z" id="Combined-Shape"></path>
                    <path d="M14.6797203,18.2959441 C18.7882517,14.9393007 22.8072727,11.4662937 27.0053147,8.20811189 C24.8033566,11.5916084 22.5387413,14.9303497 20.3367832,18.3138462 C18.4481119,18.3227972 16.5594406,18.3227972 14.6797203,18.2959441 L14.6797203,18.2959441 Z" id="Shape"></path>
                    <path d="M18.1527273,20.1667133 C20.0503497,20.1667133 21.939021,20.1667133 23.8276923,20.1935664 C19.6923077,23.5323077 15.6911888,27.0321678 11.4841958,30.2813986 C13.6861538,26.8979021 15.9507692,23.5502098 18.1527273,20.1667133 L18.1527273,20.1667133 Z" id="Shape"></path>
                </g>
                <path d="M53.5845594,25.4424615 C54.3579301,25.8721119 55.4965035,26.1728671 56.763972,26.1728671 C59.5352168,26.1728671 61.0175105,24.797986 61.0175105,22.9075245 C60.996028,21.3607832 60.1152448,20.3940699 58.2247832,19.7066294 C56.8928671,19.234014 56.3987692,18.9117762 56.3987692,18.2458182 C56.3987692,17.6013427 56.9143497,17.1502098 57.8595804,17.1502098 C58.7833287,17.1502098 59.6211469,17.4939301 60.0722797,17.7517203 L60.5878601,15.8827413 C59.9863497,15.5605035 58.9766713,15.2597483 57.8166154,15.2597483 C55.3890909,15.2597483 53.8638322,16.6990769 53.8638322,18.5465734 C53.8423497,19.7710769 54.7016503,20.8881678 56.7424895,21.5970909 C58.0314406,22.0482238 58.4610909,22.4134266 58.4610909,23.1223497 C58.4610909,23.8097902 57.9455105,24.2824056 56.7854545,24.2824056 C55.8402238,24.2824056 54.7016503,23.8957203 54.1001399,23.5305175 L53.5845594,25.4424615 Z M67.0397762,15.2597483 C70.1547413,15.2597483 72.2385455,17.450965 72.2385455,20.6303776 C72.2385455,24.4757483 69.5317483,26.1943497 66.8679161,26.1943497 C63.9033287,26.1943497 61.6261818,24.1535105 61.6261818,20.8022378 C61.6261818,17.365035 63.8818462,15.2597483 67.0397762,15.2597483 Z M66.9753287,17.1931748 C65.1063497,17.1931748 64.3544615,18.9977063 64.3544615,20.7377902 C64.3544615,22.7571469 65.3426573,24.2824056 66.9538462,24.2824056 C68.4576224,24.2824056 69.5102657,22.8001119 69.5102657,20.6948252 C69.5102657,19.0621538 68.7798601,17.1931748 66.9753287,17.1931748 Z M80.8387133,23.6808951 C80.3231329,23.8957203 79.6786573,24.0890629 78.7549091,24.0890629 C76.9503776,24.0890629 75.554014,22.8645594 75.554014,20.7163077 C75.5325315,18.8043636 76.7355524,17.3220699 78.7549091,17.3220699 C79.7001399,17.3220699 80.3231329,17.5368951 80.7527832,17.7302378 L81.2253986,15.7538462 C80.6238881,15.4745734 79.6356923,15.2597483 78.668979,15.2597483 C74.9954685,15.2597483 72.8472168,17.7087552 72.8472168,20.8452028 C72.8472168,24.0890629 74.973986,26.1728671 78.2393287,26.1728671 C79.5497622,26.1728671 80.6453706,25.8935944 81.2039161,25.6358042 L80.8387133,23.6808951 Z M84.9060699,10.7054545 L82.2637203,10.7054545 L82.2637203,25.958042 L84.9060699,25.958042 L84.9060699,22.3919441 L85.8083357,21.3393007 L88.8158881,25.958042 L92.0597483,25.958042 L87.6343497,19.7710769 L91.5012028,15.4960559 L88.3217902,15.4960559 L85.7868531,18.8688112 C85.5075804,19.234014 85.2068252,19.6851469 84.949035,20.0933147 L84.9060699,20.0933147 L84.9060699,10.7054545 Z M101.025119,21.4681958 L94.0218182,21.4681958 C94.0862657,23.3586573 95.5685594,24.174993 97.2441958,24.174993 C98.4686993,24.174993 99.3494825,24.0031329 100.144336,23.7023776 L100.531021,25.5283916 C99.6287552,25.8935944 98.3827692,26.1728671 96.878993,26.1728671 C93.4847552,26.1728671 91.4868811,24.0890629 91.4868811,20.8881678 C91.4868811,17.988028 93.2484476,15.2597483 96.5997203,15.2597483 C99.993958,15.2597483 101.111049,18.0524755 101.111049,20.3511049 C101.111049,20.8452028 101.068084,21.2318881 101.025119,21.4681958 Z M94.0218182,19.6206993 L98.6190769,19.6206993 C98.6405594,18.653986 98.2109091,17.0642797 96.4493427,17.0642797 C94.8166713,17.0642797 94.1292308,18.5465734 94.0218182,19.6206993 Z M102.793846,13.132979 L102.793846,15.4960559 L101.29007,15.4960559 L101.29007,17.4724476 L102.793846,17.4724476 L102.793846,22.3919441 C102.793846,23.7668252 103.051636,24.7120559 103.610182,25.3135664 C104.10428,25.8506294 104.920615,26.1728671 105.887329,26.1728671 C106.725147,26.1728671 107.412587,26.0654545 107.799273,25.9150769 L107.756308,23.8957203 C107.52,23.9601678 107.17628,24.0246154 106.725147,24.0246154 C105.715469,24.0246154 105.371748,23.3586573 105.371748,22.0911888 L105.371748,17.4724476 L107.885203,17.4724476 L107.885203,15.4960559 L105.371748,15.4960559 L105.371748,12.509986 L102.793846,13.132979 Z M110.16951,26.1943497 C111.157706,26.1943497 111.802182,25.4639441 111.802182,24.4972308 C111.802182,23.4875524 111.136224,22.8001119 110.16951,22.8001119 C109.22428,22.8001119 108.536839,23.509035 108.536839,24.4972308 C108.536839,25.4639441 109.202797,26.1943497 110.16951,26.1943497 Z M115.697678,25.958042 L115.697678,15.4960559 L113.033846,15.4960559 L113.033846,25.958042 L115.697678,25.958042 Z M114.365762,11.1351049 C113.484979,11.1351049 112.883469,11.7580979 112.883469,12.5744336 C112.883469,13.3692867 113.463497,13.9922797 114.34428,13.9922797 C115.268028,13.9922797 115.848056,13.3692867 115.848056,12.5744336 C115.826573,11.7580979 115.268028,11.1351049 114.365762,11.1351049 Z M122.385902,15.2597483 C125.500867,15.2597483 127.584671,17.450965 127.584671,20.6303776 C127.584671,24.4757483 124.877874,26.1943497 122.214042,26.1943497 C119.249455,26.1943497 116.972308,24.1535105 116.972308,20.8022378 C116.972308,17.365035 119.227972,15.2597483 122.385902,15.2597483 Z M122.321455,17.1931748 C120.452476,17.1931748 119.700587,18.9977063 119.700587,20.7377902 C119.700587,22.7571469 120.688783,24.2824056 122.299972,24.2824056 C123.803748,24.2824056 124.856392,22.8001119 124.856392,20.6948252 C124.856392,19.0621538 124.125986,17.1931748 122.321455,17.1931748 Z" id="socket.io"></path>
            </g>
        </g>
    </g>
</svg>
