
<svg width="3047px" height="876px" viewBox="421 336 3047 876" version="1.1" xmlns="http://www.w3.org/2000/svg" xmlns:xlink="http://www.w3.org/1999/xlink">
    <g id="logo-on-white-bg" stroke="none" stroke-width="1" fill="none" fill-rule="evenodd" transform="translate(421.000000, 336.000000)">
        <polygon id="Shape" fill="#FFFFFF" fill-rule="nonzero" points="387 0 774 218.9 774 656.8 387 875.7 0 656.8 0 218.9"></polygon>
        <path d="M704.9,641.7 L399.8,814.3 L399.8,679.9 L589.9,575.3 L704.9,641.7 L704.9,641.7 Z M725.8,622.8 L725.8,261.9 L614.2,326.4 L614.2,558.4 L725.8,622.8 L725.8,622.8 Z M67.9,641.7 L373,814.3 L373,679.9 L182.8,575.3 L67.9,641.7 L67.9,641.7 Z M47,622.8 L47,261.9 L158.6,326.4 L158.6,558.4 L47,622.8 Z M60.1,238.5 L373,61.5 L373,191.4 L172.5,301.7 L170.9,302.6 L60.1,238.5 L60.1,238.5 Z M712.7,238.5 L399.8,61.5 L399.8,191.4 L600.3,301.6 L601.9,302.5 L712.7,238.5 Z" id="Shape" fill="#4A4A4A" fill-rule="nonzero"></path>
        <path d="M373,649.3 L185.4,546.1 L185.4,341.8 L373,450.1 L373,649.3 Z M399.8,649.3 L587.4,546.2 L587.4,341.8 L399.8,450.1 L399.8,649.3 Z M198.1,318.2 L386.4,214.7 L574.7,318.2 L386.4,426.9 L198.1,318.2 L198.1,318.2 Z" id="Shape" fill="#4A4A4A" fill-rule="nonzero"></path>
        <path d="M1164.3,576.3 L1246.8,576.3 L1330.9,296.1 L1250.5,296.1 L1200.7,494.9 L1147.6,296.1 L1078,296.1 L1024.4,494.9 L975.1,296.1 L894.7,296.1 L978.3,576.3 L1060.8,576.3 L1112.8,396.8 L1164.3,576.3 Z M1335.2,437 C1335.2,521.1 1392.5,583.3 1482.6,583.3 C1552.3,583.3 1589.8,541.5 1600.5,521.7 L1551.7,484.7 C1543.7,496.5 1521.7,519 1483.6,519 C1442.3,519 1412.3,492.2 1410.7,454.7 L1608,454.7 C1608.5,449.3 1608.5,444 1608.5,438.6 C1608.5,347 1559.2,289.1 1472.4,289.1 C1392.5,289.1 1335.2,352.3 1335.2,437 L1335.2,437 Z M1412.9,406.4 C1416.1,374.3 1438.6,349.6 1473.5,349.6 C1507.3,349.6 1531.9,372.1 1533.5,406.4 L1412.9,406.4 Z M1636.4,576.3 L1706.1,576.3 L1706.1,547.4 C1713.6,556.5 1741.5,583.3 1789.2,583.3 C1869.6,583.3 1926.4,522.8 1926.4,436.5 C1926.4,349.7 1873.9,289.2 1793.5,289.2 C1745.3,289.2 1717.4,316 1710.4,325.6 L1710.4,188.9 L1636.5,188.9 L1636.5,576.3 L1636.4,576.3 Z M1708.2,437 C1708.2,384.5 1739.3,354.5 1780,354.5 C1822.9,354.5 1851.8,388.3 1851.8,437 C1851.8,486.8 1821.8,517.9 1780,517.9 C1735,517.9 1708.2,481.4 1708.2,437 Z M1955.2,676.5 L2029.1,676.5 L2029.1,547.3 C2036.1,556.4 2063.9,583.2 2112.2,583.2 C2192.6,583.2 2245.1,522.7 2245.1,435.9 C2245.1,350.2 2188.3,289.1 2107.9,289.1 C2060.2,289.1 2032.3,315.9 2024.8,325.5 L2024.8,296 L1955.1,296 L1955.1,676.5 L1955.2,676.5 Z M2027,435.4 C2027,390.9 2053.8,354.5 2098.8,354.5 C2140.6,354.5 2170.6,385.6 2170.6,435.4 C2170.6,484.2 2141.7,517.9 2098.8,517.9 C2058.1,517.9 2027,487.9 2027,435.4 Z M2258.5,489.5 C2258.5,548.4 2306.7,583.3 2363.5,583.3 C2395.7,583.3 2417.1,573.7 2431.6,558.1 L2436.4,576.3 L2501.8,576.3 L2501.8,398.9 C2501.8,336.2 2475,289.1 2385,289.1 C2342.1,289.1 2299.8,305.2 2274.6,322.3 L2302.5,372.7 C2323.4,362 2349.1,352.9 2377,352.9 C2409.7,352.9 2427.9,369.5 2427.9,394.2 L2427.9,412.4 C2417.7,405.4 2395.7,396.9 2367.3,396.9 C2301.9,396.8 2258.5,434.3 2258.5,489.5 L2258.5,489.5 Z M2332.4,487.3 C2332.4,464.3 2352.2,448.2 2380.6,448.2 C2409,448.2 2429.4,462.7 2429.4,487.3 C2429.4,510.9 2409,525.9 2381.2,525.9 C2353.4,525.9 2332.4,510.4 2332.4,487.3 Z M2681.3,517.9 C2634.7,517.9 2601.5,484.1 2601.5,436.5 C2601.5,391.5 2631,354.5 2678.7,354.5 C2710.3,354.5 2731.8,370 2744.1,381.3 L2765,319.1 C2746.8,305.2 2717.8,289.1 2676.6,289.1 C2591.4,289.1 2527.6,351.8 2527.6,437 C2527.6,522.2 2589.8,583.3 2677.1,583.3 C2717.8,583.3 2748.4,566.2 2764.4,553.3 L2744.6,492.8 C2732.2,502.9 2709.7,517.9 2681.3,517.9 L2681.3,517.9 Z M2792.2,576.3 L2866.1,576.3 L2866.1,431.6 L2959.9,576.3 L3046.7,576.3 L2940.6,423 L3039.2,296 L2956.1,296 L2866.1,413.9 L2866.1,188.9 L2792.2,188.9 L2792.2,576.3 L2792.2,576.3 Z" id="Shape" fill="#4A4A4A" fill-rule="nonzero"></path>
    </g>
</svg>
