
<svg width="128px" height="128px" viewBox="0 0 128 128" version="1.1" xmlns="http://www.w3.org/2000/svg" xmlns:xlink="http://www.w3.org/1999/xlink">
    <!-- Generator: Sketch 42 (36781) - http://www.bohemiancoding.com/sketch -->
    <desc>Created with Sketch.</desc>
    <defs></defs>
    <g id="logo-on-white-bg" stroke="none" fill="none" transform="translate(0.000000, 38.000000)" stroke-width="1" fill-rule="evenodd">
        <g id="Shape" fill="#363636">
            <path d="M28.0704,24.7765333 L15.0528,32.1408 L15.0528,26.4064 L23.1637333,21.9434667 L28.0704,24.7765333 L28.0704,24.7765333 Z M28.9621333,23.9701333 L28.9621333,8.57173333 L24.2005333,11.3237333 L24.2005333,21.2224 L28.9621333,23.9701333 L28.9621333,23.9701333 Z M0.891733333,24.7765333 L13.9093333,32.1408 L13.9093333,26.4064 L5.79413333,21.9434667 L0.891733333,24.7765333 L0.891733333,24.7765333 Z M0,23.9701333 L0,8.57173333 L4.7616,11.3237333 L4.7616,21.2224 L0,23.9701333 Z M0.558933333,7.57333333 L13.9093333,0.0213333333 L13.9093333,5.56373333 L5.35466667,10.2698667 L5.2864,10.3082667 L0.558933333,7.57333333 L0.558933333,7.57333333 Z M28.4032,7.57333333 L15.0528,0.0213333333 L15.0528,5.56373333 L23.6074667,10.2656 L23.6757333,10.304 L28.4032,7.57333333 Z" fill-rule="nonzero"></path>
            <path d="M13.9093333,25.1008 L5.90506667,20.6976 L5.90506667,11.9808 L13.9093333,16.6016 L13.9093333,25.1008 Z M15.0528,25.1008 L23.0570667,20.7018667 L23.0570667,11.9808 L15.0528,16.6016 L15.0528,25.1008 Z M6.44693333,10.9738667 L14.4810667,6.55786667 L22.5152,10.9738667 L14.4810667,15.6117333 L6.44693333,10.9738667 L6.44693333,10.9738667 Z" fill-rule="nonzero"></path>
            <path d="M47.6714667,21.9861333 L51.1914667,21.9861333 L54.7797333,10.0309333 L51.3493333,10.0309333 L49.2245333,18.5130667 L46.9589333,10.0309333 L43.9893333,10.0309333 L41.7024,18.5130667 L39.5989333,10.0309333 L36.1685333,10.0309333 L39.7354667,21.9861333 L43.2554667,21.9861333 L45.4741333,14.3274667 L47.6714667,21.9861333 Z M54.9632,16.0426667 C54.9632,12.4288 57.408,9.73226667 60.8170667,9.73226667 C64.5205333,9.73226667 66.624,12.2026667 66.624,16.1109333 C66.624,16.3413333 66.624,16.5674667 66.6026667,16.7978667 L58.1845333,16.7978667 C58.2528,18.3978667 59.5328,19.5413333 61.2949333,19.5413333 C62.9205333,19.5413333 63.8592,18.5813333 64.2005333,18.0778667 L66.2826667,19.6565333 C65.8261333,20.5013333 64.2261333,22.2848 61.2522667,22.2848 C57.408,22.2848 54.9632,19.6309333 54.9632,16.0426667 Z M58.2784,14.7370667 L63.424,14.7370667 C63.3557333,13.2736 62.3061333,12.3136 60.864,12.3136 C59.3749333,12.3136 58.4149333,13.3674667 58.2784,14.7370667 Z M67.8144,21.9861333 L67.8186667,21.9861333 L67.8186667,5.45706667 L70.9717333,5.45706667 L70.9717333,11.2896 C71.2704,10.88 72.4608,9.73653333 74.5173333,9.73653333 C77.9477333,9.73653333 80.1877333,12.3178667 80.1877333,16.0213333 C80.1877333,19.7034667 77.7642667,22.2848 74.3338667,22.2848 C72.2986667,22.2848 71.1082667,21.1413333 70.7882667,20.7530667 L70.7882667,21.9861333 L67.8144,21.9861333 Z M70.8778667,16.0426667 C70.8778667,17.9370667 72.0213333,19.4944 73.9413333,19.4944 C75.7248,19.4944 77.0048,18.1674667 77.0048,16.0426667 C77.0048,13.9648 75.7717333,12.5226667 73.9413333,12.5226667 C72.2048,12.5226667 70.8778667,13.8026667 70.8778667,16.0426667 Z M81.4165333,26.2613333 L81.4122667,26.2613333 L81.4122667,10.0266667 L84.3861333,10.0266667 L84.3861333,11.2853333 C84.7061333,10.8757333 85.8965333,9.73226667 87.9317333,9.73226667 C91.3621333,9.73226667 93.7856,12.3392 93.7856,15.9957333 C93.7856,19.6992 91.5456,22.2805333 88.1152,22.2805333 C86.0544,22.2805333 84.8682667,21.1370667 84.5696,20.7488 L84.5696,26.2613333 L81.4165333,26.2613333 Z M84.48,15.9744 C84.48,18.2144 85.8069333,19.4944 87.5434667,19.4944 C89.3738667,19.4944 90.6069333,18.0565333 90.6069333,15.9744 C90.6069333,13.8496 89.3269333,12.5226667 87.5434667,12.5226667 C85.6234667,12.5226667 84.48,14.0757333 84.48,15.9744 Z M94.3573333,18.2826667 C94.3573333,15.9274667 96.2090667,14.3274667 98.9994667,14.3317333 C100.2112,14.3317333 101.149867,14.6944 101.585067,14.9930667 L101.585067,14.2165333 C101.585067,13.1626667 100.808533,12.4544 99.4133333,12.4544 C98.2229333,12.4544 97.1264,12.8426667 96.2346667,13.2992 L95.0442667,11.1488 C96.1194667,10.4192 97.9242667,9.73226667 99.7546667,9.73226667 C103.594667,9.73226667 104.738133,11.7418667 104.738133,14.4170667 L104.738133,21.9861333 L101.947733,21.9861333 L101.742933,21.2096 C101.124267,21.8752 100.2112,22.2848 98.8373333,22.2848 C96.4138667,22.2848 94.3573333,20.7957333 94.3573333,18.2826667 Z M97.5104,18.1888 C97.5104,19.1744 98.4064,19.8357333 99.5925333,19.8357333 C100.778667,19.8357333 101.649067,19.1957333 101.649067,18.1888 C101.649067,17.1392 100.778667,16.5205333 99.5669333,16.5205333 C98.3552,16.5205333 97.5104,17.2074667 97.5104,18.1888 Z M112.3968,19.4944 C110.408533,19.4944 108.992,18.0522667 108.992,16.0213333 C108.992,14.1013333 110.250667,12.5226667 112.285867,12.5226667 C113.634133,12.5226667 114.551467,13.184 115.076267,13.6661333 L115.968,11.0122667 C115.191467,10.4192 113.954133,9.73226667 112.196267,9.73226667 C108.561067,9.73226667 105.838933,12.4074667 105.838933,16.0426667 C105.838933,19.6778667 108.4928,22.2848 112.2176,22.2848 C113.954133,22.2848 115.259733,21.5552 115.9424,21.0048 L115.0976,18.4234667 C114.568533,18.8544 113.608533,19.4944 112.3968,19.4944 L112.3968,19.4944 Z M117.128533,21.9861333 L120.2816,21.9861333 L120.2816,15.8122667 L124.283733,21.9861333 L127.9872,21.9861333 L123.460267,15.4453333 L127.6672,10.0266667 L124.1216,10.0266667 L120.2816,15.0570667 L120.2816,5.45706667 L117.128533,5.45706667 L117.128533,21.9861333 L117.128533,21.9861333 Z" fill-rule="nonzero"></path>
        </g>
    </g>
</svg>
